<?xml version="1.0" encoding="UTF-8" standalone="no"?>
<!-- Created with Inkscape (http://www.inkscape.org/) -->

<svg
   width="96.043755mm"
   height="114.03541mm"
   viewBox="0 0 96.043755 114.03541"
   version="1.1"
   id="svg5"
   xml:space="preserve"
   xmlns="http://www.w3.org/2000/svg"
   xmlns:svg="http://www.w3.org/2000/svg"><defs
     id="defs2" /><g
     id="layer1"
     transform="translate(9.3479351,-71.731279)"><path
       style="fill:#048cd9;stroke:none;stroke-width:0.264583"
       d="m -7.2312691,145.81461 h -1.852083 v 25.92917 l -0.264583,14.02291 H 86.695816 v -80.9625 h -2.38125 v 36.24792 9.78958 c 0,1.26418 0.31141,3.13161 -0.36989,4.26456 -1.21708,2.0238 -7.38373,1.02711 -9.41969,1.02711 H 62.354148 c -1.366044,0 -3.5941,0.38973 -4.756415,-0.49107 -1.058862,-0.80221 -0.643731,-2.45057 -1.433248,-3.45572 -0.986102,-1.25518 -2.590006,-1.7018 -2.835804,-3.47927 -0.609071,-4.40081 0.377032,-9.16411 1.839119,-13.21144 0.544513,-1.50707 0.84164,-3.12446 1.91426,-4.37832 1.117336,-1.30572 2.864115,-1.77562 4.111625,-2.93397 2.833688,-2.63128 6.639984,-7.08501 8.102601,-10.6799 1.077118,-2.64743 1.418431,-5.47794 2.214297,-8.20156 0.575734,-1.97035 1.539346,-3.76237 1.828007,-5.82083 0.378883,-2.70034 -0.445559,-6.259778 1.152786,-8.643409 2.53207,-3.776134 9.56734,1.227931 11.15748,-4.298686 0.77259,-2.684462 -4.93157,-4.471987 -6.38069,-6.066896 -3.57717,-3.937529 -3.42027,-7.769489 -3.42027,-12.74101 -2.283617,1.448488 -4.169567,3.406246 -6.349998,4.997185 -3.899694,2.84533 -7.755996,5.23293 -11.1125,8.782844 -4.653756,4.922309 -6.927056,10.367169 -14.022917,12.045156 -1.916112,0.453232 -4.78155,0.815446 -6.598708,-0.122502 -1.907117,-0.98425 -3.075517,-3.218656 -4.495006,-4.755621 -3.50229,-3.793331 -8.866188,-7.517606 -14.306286,-5.643033 -1.359164,0.468313 -2.584979,1.264973 -3.704166,2.154238 -1.862138,1.479021 -3.643577,3.225271 -5.190332,5.031316 -1.7428101,2.034382 -1.9960161,4.658255 -3.3914291,6.879168 -4.407429,7.01384 -10.450512,14.34438 -9.294019,23.28333 0.426509,3.29645 2.440517,6.24232 2.712509,9.525 0.201083,2.42782 -0.733954,4.77547 -1.088231,7.14375 -0.300567,2.00925 -0.01799,4.07908 0.186795,6.08542 0.175419,1.71609 2.046817,7.28556 0.643203,8.50476 -0.709878,0.61675 -1.965855,0.48578 -2.835011,0.48895 -1.101725,0.004 -2.739496,0.20003 -3.598598,-0.65431 -1.664229,-1.65497 -0.634471,-7.44114 -0.634471,-9.66232 M 21.344261,94.614562 c 1.687247,-0.2286 3.760522,-0.33311 5.237956,0.646907 1.630098,1.081087 2.0955,3.221566 -0.237596,3.660245 -1.880394,0.353747 -5.787496,0.569117 -7.49644,-0.373062 -2.836333,-1.563952 0.906727,-3.718719 2.49608,-3.93409 M 6.2624809,152.16461 c -2.692664,-0.95409 -3.150658,-3.19696 -3.171031,-5.82083 -0.05477,-7.01437 6.007894,-9.14797 9.1556421,-14.55288 1.725877,-2.9636 3.179762,-7.33875 6.460596,-8.96646 2.23467,-1.10887 4.886854,0.0439 7.13396,0.52705 5.042429,1.08426 10.520098,1.52691 15.345833,3.40254 1.715559,0.66675 4.026959,1.42901 5.090319,3.03424 1.11469,1.68328 0.922338,4.04865 1.125008,5.97217 0.381,3.61024 1.089555,6.92494 1.214702,10.58334 0.07197,2.10582 0.224896,4.35901 0.956734,6.3492 0.278341,0.75777 1.086114,2.00105 0.569383,2.80591 -0.521229,0.81121 -2.058987,0.62786 -2.871523,0.63288 -2.557198,0.0161 -5.114925,0.002 -7.672123,0.002 h -24.60625 c -1.846262,0 -6.6431581,0.84905 -7.9808911,-0.65617 -0.710407,-0.7993 -0.642938,-2.3106 -0.750359,-3.31258 m -12.164483,7.77822 c 1.507331,-0.95858 4.622271,-0.36989 6.34365,-0.36989 H 16.052065 62.354148 76.112486 c 2.08782,0 4.78551,-0.44555 6.79132,0.19236 1.67375,0.53207 1.40811,2.64583 1.41049,4.04098 l 2.7e-4,11.1125 c -5.3e-4,1.13109 0.33708,3.17103 -0.63447,4.00685 -1.21735,1.04748 -4.22037,0.49106 -5.71553,0.49106 H 62.354148 15.258315 1.2353979 c -2.047346,0 -4.791075,0.47176 -6.74714,-0.19235 -1.544108,-0.52414 -1.189302,-2.76622 -1.19036,-4.04098 v -11.37708 c 0.0011,-1.11892 -0.319352,-3.15145 0.8001,-3.86345 m 1.316567,0.95303 v 0.26458 c 3.787775,1.71874 2.651125,6.53786 2.645304,10.05417 -0.0024,1.53035 0.188912,3.49568 -0.623094,4.86807 -0.54901,0.92789 -1.588029,1.1893 -2.551377,1.48193 v 0.26458 c 4.667515,-0.003 11.096625,1.04564 15.3423941,-1.20226 5.4483,-2.88422 5.453062,-10.9773 0.261673,-14.09277 -4.4050481,-2.64345 -10.2324961,-0.8427 -15.0749001,-1.6383 m 37.3062501,13.49375 h -0.264584 c -0.982927,1.13242 -1.999985,2.18996 -3.440641,2.72018 -1.004623,0.36936 -2.115609,0.46805 -3.173942,0.32332 -5.694363,-0.77867 -7.200106,-8.24627 -4.554537,-12.56453 1.6256,-2.65298 4.956439,-4.56935 7.986447,-3.06996 1.182423,0.58499 2.057136,1.5666 2.91809,2.53682 0.23495,-3.56314 -3.601244,-3.6232 -6.35,-3.36258 -4.15925,0.39422 -7.818173,3.57769 -8.141494,7.8605 -0.365654,4.84637 3.016779,8.65029 7.876911,8.95668 3.226064,0.20346 6.449218,0.36062 7.14375,-3.40043 m 30.427083,-13.22917 v 0.52917 c 3.50811,1.14935 2.15556,7.90998 1.956065,10.84792 -0.07699,1.13268 0.166952,2.54503 -0.394759,3.57769 -0.486568,0.8943 -1.448858,1.17396 -2.355056,1.44939 v 0.26458 h 7.408333 v -0.26458 c -3.32687,-0.90884 -2.38125,-4.91569 -2.38125,-7.67292 2.416969,-0.0746 6.646598,-0.88741 8.863805,0.0151 1.74413,0.70987 1.54226,4.81859 0.70565,6.14336 -0.49504,0.78343 -1.45098,1.21523 -2.16112,1.77905 h 7.40833 v -0.26458 c -0.85672,-0.42174 -1.82218,-0.82259 -2.27833,-1.72323 -0.59848,-1.18136 -0.36724,-2.81649 -0.3675,-4.0976 -5.3e-4,-3.30941 -1.27979,-8.79264 2.38125,-10.31875 v -0.26459 h -6.61458 v 0.52917 c 2.23149,0.67813 3.43058,5.7195 1.13056,7.03845 -0.98346,0.56409 -2.424642,0.36883 -3.511815,0.36988 -1.349904,8e-4 -3.335337,0.33576 -4.551891,-0.36988 -1.480609,-0.8591 -1.300957,-4.53126 -0.637646,-5.85576 0.457994,-0.91467 1.515269,-1.35652 2.279121,-1.97644 l -6.879167,0.26458 m -24.870833,0.26459 v 0.26458 c 0.99695,0.33576 2.01877,0.67522 2.519627,1.68619 0.6985,1.40944 0.388673,3.4036 0.391319,4.92839 0.0053,3.32105 1.48246,8.06847 -2.646363,9.26042 v 0.26458 h 6.614583 v -0.26458 c -4.352395,-0.9435 -3.438525,-4.49765 -3.439583,-8.20208 -2.65e-4,-0.68951 -0.424656,-4.02114 0.564092,-4.16613 1.17131,-0.17198 2.952485,2.38046 3.661833,3.10277 3.227652,3.28639 6.183577,7.25011 10.061575,9.79461 0,-3.69015 0.172508,-7.42897 -0.06006,-11.1125 -0.147902,-2.34024 -0.538163,-4.41563 1.912143,-5.55625 v -0.26459 h -5.55625 v 0.26459 c 4.705086,1.42187 3.439584,9.43927 3.439584,13.49375 -6.02668,-3.98807 -9.601994,-13.53873 -17.4625,-13.49375 m -37.1742231,0.29183 c 1.213114,-0.5281 2.860939,-0.24024 4.101306,0.0381 7.0990351,1.59306 9.6570271,11.84672 2.115608,14.97965 -0.759354,0.31539 -1.562629,0.4662 -2.380191,0.52123 -5.859992,0.39264 -5.027084,-4.89294 -5.027084,-9.21623 0,-1.65444 -0.714375,-5.49354 1.190361,-6.32275 z"
       id="path346" /></g></svg>
