<?xml version="1.0" encoding="UTF-8" standalone="no"?>
<!-- Created with Inkscape (http://www.inkscape.org/) -->

<svg
   width="270.93332mm"
   height="270.93332mm"
   viewBox="0 0 270.93332 270.93332"
   version="1.1"
   id="svg5"
   xml:space="preserve"
   xmlns="http://www.w3.org/2000/svg"
   xmlns:svg="http://www.w3.org/2000/svg"><defs
     id="defs2" /><g
     id="layer1"
     transform="translate(21.646303,-4.4375327)"><g
       id="g344"
       transform="translate(58.68862,-7.1137723)"><path
         style="fill:#f5efe5;stroke-width:0.264583"
         d="M -80.334923,147.01796 V 11.551305 H 55.131737 190.5984 V 147.01796 282.48462 H 55.131737 -80.334923 Z M 37.163503,259.39973 c 0.403436,-0.43198 35.524988,-0.36016 36.358389,0.0743 0.362661,0.18908 9.539133,0.25077 28.971878,0.19477 l 28.44109,-0.082 2.77812,-0.60534 c 11.78428,-2.56775 21.85007,-9.41492 28.2651,-19.22711 3.92771,-6.00769 6.00698,-12.29391 6.65114,-20.10833 0.19593,-2.37678 0.25142,-25.47227 0.17959,-74.74479 -0.11532,-79.105348 0.0262,-73.146548 -1.88849,-79.507289 -5.02586,-16.696089 -20.00835,-29.001868 -37.20616,-30.559048 -2.35412,-0.213155 -23.84631,-0.273024 -76.302215,-0.212549 -69.62192,0.08027 -73.14213,0.106873 -75.538538,0.570957 -6.446781,1.248474 -13.615777,4.381046 -18.601665,8.128202 -9.233696,6.939608 -14.821489,15.974917 -17.004862,27.496396 -0.449807,2.373593 -0.481584,6.491006 -0.570739,73.951041 -0.06374,48.23064 -0.0046,72.49555 0.182178,74.69451 0.499472,5.8816 1.670895,10.45532 3.869807,15.10932 5.80948,12.29577 17.87943,21.66204 31.363782,24.33825 1.510231,0.29973 3.162593,0.58765 3.671916,0.63982 0.509323,0.0522 13.3336129,0.11392 28.4984202,0.13721 21.7608798,0.0334 27.6374848,-0.0274 27.8812588,-0.28839 z M -50.324637,89.72254 c -0.54189,-2.888523 1.085692,-5.060731 4.028766,-5.376886 l 1.547405,-0.166228 0.157689,-3.571874 c 0.119319,-2.702769 0.290935,-3.91187 0.705321,-4.969198 3.036781,-7.748513 11.664383,-11.009354 18.910394,-7.147269 3.230573,1.721877 6.014167,5.555578 6.492266,8.941467 l 0.205481,1.455208 2.408271,-0.09408 c 2.777355,-0.108503 3.742788,0.217448 5.254808,1.77415 1.4088768,1.450512 2.0578177,3.434159 1.9217769,5.87439 -0.068747,1.233117 -0.3065992,2.398136 -0.6212046,3.042708 l -0.5098044,1.044501 -20.1621799,0.0678 -20.162178,0.06779 z"
         id="path364" /><path
         style="fill:#f2e5d4;stroke-width:0.264583"
         d="m -19.216176,259.55091 c -0.509323,-0.0522 -2.161685,-0.34009 -3.671916,-0.63982 -13.484352,-2.67621 -25.554302,-12.04248 -31.363782,-24.33825 -2.198912,-4.654 -3.370335,-9.22772 -3.869807,-15.10932 -0.186737,-2.19896 -0.245918,-26.46387 -0.182178,-74.69451 0.08916,-67.460035 0.120932,-71.577448 0.570739,-73.951041 2.183373,-11.521479 7.771166,-20.556788 17.004862,-27.496396 4.985888,-3.747156 12.154884,-6.879728 18.601665,-8.128202 2.396408,-0.464084 5.916618,-0.490691 75.538538,-0.570957 52.455905,-0.06047 73.948095,-6.08e-4 76.302215,0.212549 12.67177,1.147368 24.33499,8.14062 31.84105,19.09185 1.92405,2.807158 4.26333,7.807063 5.36511,11.467198 1.9147,6.360741 1.77317,0.401941 1.88849,79.507289 0.0718,49.27252 0.0163,72.36801 -0.17959,74.74479 -0.64416,7.81442 -2.72343,14.10064 -6.65114,20.10833 -6.41503,9.81219 -16.48082,16.65936 -28.2651,19.22711 l -2.77812,0.60534 -28.44109,0.082 c -19.432745,0.056 -28.609217,-0.006 -28.971878,-0.19477 -0.833401,-0.4345 -35.954953,-0.50632 -36.358389,-0.0743 -0.243774,0.26102 -6.120379,0.32181 -27.8812588,0.28839 -15.1648073,-0.0233 -27.9890972,-0.085 -28.4984202,-0.13721 z m 56.036279,-0.47062 c 0.245832,-0.24583 -0.477952,-3.45077 -1.696038,-7.5101 -1.25449,-4.18064 -1.842444,-5.55084 -2.564632,-5.97671 -0.698122,-0.41167 -1.504778,0.65802 -1.504778,1.99546 0,0.56596 -0.0893,1.02881 -0.198438,1.02855 -0.266284,-5.3e-4 -1.392264,-1.83369 -2.518828,-4.10057 -1.855739,-3.73413 -3.158905,-8.15505 -3.780893,-12.82646 -0.401081,-3.0123 -0.510696,-8.6257 -0.172518,-8.83471 0.11467,-0.0709 1.156467,0.70741 2.315104,1.7295 4.163321,3.67267 10.816287,7.4358 12.308619,6.96215 0.480441,-0.15248 0.76717,-0.83026 0.582893,-1.37785 -0.06005,-0.17845 -1.858949,-1.85416 -3.997549,-3.72381 -6.237036,-5.45264 -10.241087,-10.28803 -13.020651,-15.72405 -1.629796,-3.18741 -2.117685,-3.72781 -3.127224,-3.4638 -0.961744,0.25149 -1.427792,1.55708 -1.565129,4.38455 -0.06891,1.41883 -0.21072,2.57969 -0.315122,2.57969 -0.433721,0 -3.991771,-3.72485 -5.433814,-5.68854 -4.1429113,-5.6416 -6.1673944,-9.88001 -7.8304382,-16.39361 -0.2987145,-1.16997 -0.6666309,-2.27605 -0.8175862,-2.45795 -0.5065951,-0.61044 -1.7140872,-0.34595 -3.32174044,0.7276 -0.87167768,0.58208 -1.65687366,1.05833 -1.74487936,1.05833 -0.187915,0 -0.03048,-1.50379 0.5401468,-5.15937 0.43763673,-2.80362 2.1027627,-7.94943 3.8527274,-11.90625 0.5792311,-1.30969 1.4370896,-3.43609 1.9063546,-4.72533 l 0.8532071,-2.34408 0.7333588,1.41804 c 2.6131704,5.05289 10.3616195,12.13366 13.2777965,12.13366 0.39452,0 0.935045,-0.19705 1.201166,-0.43788 0.92892,-0.84066 0.601773,-1.56635 -1.907913,-4.23222 -3.333967,-3.54144 -3.716247,-4.45014 -3.162998,-7.51862 1.369422,-7.5952 9.454271,-16.38628 15.069893,-16.38628 1.26257,0 1.336834,0.0431 2.167392,1.25677 1.165688,1.70344 3.239455,3.87291 4.790194,5.01126 0.931638,0.68388 1.520156,1.41671 2.163217,2.69366 5.288026,10.50062 16.879337,13.5712 25.541297,6.76597 2.119501,-1.66517 4.010242,-4.01145 5.274588,-6.54539 0.820253,-1.64392 1.276551,-2.22642 2.248233,-2.87003 0.670512,-0.44413 1.96269,-1.64476 2.87151,-2.66805 3.675853,-4.13889 3.453783,-3.96771 4.880572,-3.76215 3.586515,0.51672 7.953499,3.91508 11.177849,8.69854 2.489145,3.69276 3.45335,6.32153 3.45335,9.41509 0,2.36043 -0.147683,2.62293 -3.534153,6.28177 -2.222326,2.40106 -2.495339,3.18153 -1.370698,3.91843 0.541255,0.35464 0.808826,0.37485 1.582412,0.11954 1.288341,-0.42518 4.675184,-2.67568 6.2891,-4.17899 1.961247,-1.82684 4.872397,-5.38844 6.046237,-7.3972 0.62742,-1.07367 1.07444,-1.60434 1.15677,-1.37321 0.88465,2.48374 1.91293,5.12824 2.92421,7.52045 2.3385,5.5318 3.6092,10.13934 3.99502,14.48594 0.18289,2.06046 0.01,2.49025 -0.67267,1.66817 -0.55201,-0.66512 -2.81384,-1.9989 -3.38976,-1.9989 -0.90824,0 -1.28727,0.63716 -1.9196,3.22692 -1.28407,5.25901 -3.09513,9.18605 -6.565134,14.23558 -2.055619,2.99132 -5.741895,7.14375 -6.3418,7.14375 -0.130993,0 -0.310248,-0.92274 -0.398344,-2.05053 -0.209309,-2.67952 -0.701027,-4.07411 -1.590154,-4.50993 -1.119518,-0.54874 -1.616141,-0.0468 -3.383806,3.42041 -2.847827,5.58583 -7.660378,11.31435 -13.882943,16.52527 -2.803642,2.34783 -3.139051,2.76177 -2.885406,3.56094 0.217853,0.68639 0.785408,0.80563 1.923479,0.40409 3.057524,-1.07876 7.390941,-3.79581 10.772449,-6.75432 1.164166,-1.01854 2.223579,-1.85477 2.354249,-1.85829 0.434797,-0.0117 -0.04257,8.40107 -0.63771,11.2384 -1.011941,4.82446 -3.665145,11.74346 -5.377195,14.02259 -0.385699,0.51345 -0.402024,0.50576 -0.560867,-0.26458 -0.395213,-1.91667 -0.521745,-2.11635 -1.341098,-2.11635 -1.030264,0 -1.355752,0.6751 -2.870203,5.95313 -1.360188,4.74041 -1.931656,7.3185 -1.678384,7.57178 0.09795,0.0979 12.711953,0.17085 28.031107,0.162 l 27.85301,-0.0161 3.3073,-0.6726 c 4.31303,-0.87715 6.86263,-1.721 10.58017,-3.50173 12.01431,-5.75497 20.89622,-16.69042 23.50817,-28.94335 1.13925,-5.34435 1.13061,-4.6683 1.03033,-80.56562 -0.10554,-79.880917 0.0342,-73.127118 -1.64295,-79.42821 -3.69199,-13.871302 -15.70607,-25.786642 -29.83025,-29.585081 -5.63007,-1.514101 -2.05958,-1.4507 -81.380376,-1.445083 -78.267834,0.0055 -75.427254,-0.04085 -80.756338,1.318842 -7.684238,1.960593 -15.308359,6.449506 -20.824226,12.260838 -6.622597,6.977345 -10.472018,15.45048 -11.428786,25.156418 -0.195766,1.985952 -0.283289,25.164583 -0.279739,74.083326 0.0056,77.13731 -0.05788,73.61285 1.431973,79.50643 0.788753,3.12016 1.513163,4.93547 3.492665,8.7523 5.605999,10.80937 16.466094,19.05668 29.158429,22.1433 2.596634,0.63147 3.442276,0.69887 10.626348,0.84691 9.4388013,0.1945 49.7385,0.1199 49.950863,-0.0925 z m 6.763908,-103.60091 c -2.84331,-0.57621 -5.82541,-3.11149 -7.256166,-6.16894 -0.957992,-2.04718 -1.64257,-5.1657 -1.422714,-6.48102 0.673568,-4.02969 3.42584,-8.94364 8.84248,-15.7875 6.8468,-8.65084 7.334189,-10.22541 7.944159,-25.66458 0.421833,-10.677123 1.005274,-16.944308 1.92124,-20.637497 l 0.328102,-1.322916 1.62329,-0.07798 1.62329,-0.07798 0.299273,1.665483 c 0.770117,4.285763 1.449512,12.971801 1.744472,22.30299 0.276688,8.75315 0.89685,12.76465 2.504506,16.20032 0.980951,2.09635 1.678744,3.10193 5.496335,7.92068 4.640582,5.85758 7.376189,10.402 8.417083,13.98255 1.477915,5.08385 -2.144556,12.07684 -7.156166,13.81461 -2.030347,0.70402 -4.705924,0.58327 -6.635954,-0.29948 -0.861369,-0.39397 -1.904174,-1.037 -2.317337,-1.42896 -1.187384,-1.12643 -2.073812,-2.82058 -1.97848,-3.78129 0.07346,-0.74031 0.222049,-0.88565 1.198798,-1.17258 1.805866,-0.53049 3.352549,-1.58548 5.066279,-3.45572 3.265844,-3.56409 3.676594,-7.87225 1.015264,-10.64863 -1.802572,-1.8805 -3.867735,-2.42421 -9.207801,-2.42421 -6.330066,0 -8.77067,0.93499 -10.372151,3.97358 -0.675653,1.28196 -0.750538,1.65296 -0.644898,3.19507 0.269484,3.9339 3.396647,7.82506 7.42683,9.24126 0.75251,0.26443 1.40502,0.66026 1.450023,0.87963 0.154932,0.75525 -1.073177,3.0808 -2.132222,4.03759 -2.029483,1.83351 -5.202462,2.73738 -7.777535,2.21553 z M -50.442937,90.786866 c -0.18591,-0.22401 -0.394092,-0.990849 -0.462624,-1.704086 -0.250918,-2.611353 1.613418,-4.86573 4.345659,-5.254823 l 1.282269,-0.182603 0.153204,-3.172547 c 0.225438,-4.66839 1.344435,-7.382226 4.199176,-10.184005 5.392401,-5.292362 13.866729,-5.24551 19.218493,0.106254 1.821347,1.821344 2.887398,3.690353 3.561337,6.243746 l 0.453919,1.719791 2.093801,-0.09238 c 2.441882,-0.107731 3.473744,0.230587 5.051925,1.656379 1.6360298,1.478052 2.300769,3.239264 2.3057114,6.108914 0.00347,2.015918 -0.097383,2.584211 -0.6573599,3.704166 l -0.6614583,1.322917 -20.2730172,0.06778 c -17.9825,0.06012 -20.311207,0.02178 -20.611035,-0.339508 z m 41.1292733,-1.301941 c 0.3146054,-0.644572 0.5524579,-1.809591 0.6212046,-3.042708 0.1360408,-2.440231 -0.5129001,-4.423878 -1.9217769,-5.87439 -1.51202,-1.556702 -2.477453,-1.882653 -5.254808,-1.77415 l -2.408271,0.09408 -0.205481,-1.455208 c -0.478099,-3.385889 -3.261693,-7.21959 -6.492266,-8.941467 -7.246011,-3.862085 -15.873613,-0.601244 -18.910394,7.147269 -0.414386,1.057328 -0.586002,2.266429 -0.705321,4.969198 l -0.157689,3.571874 -1.547405,0.166228 c -2.943074,0.316155 -4.570656,2.488363 -4.028766,5.376886 l 0.176811,0.942477 20.162178,-0.06779 20.1621799,-0.0678 z"
         id="path362" /><path
         style="fill:#df9445;stroke-width:0.264583"
         d="m 15.513369,172.21953 c -0.248311,-0.54571 -0.761852,-1.40891 -1.1412,-1.91823 -1.178608,-1.58243 -3.339137,-5.34591 -4.06513,-7.08116 -1.1449209,-2.73657 -1.7603523,-5.7476 -1.9297359,-9.44132 -0.1450922,-3.16409 -0.2059992,-3.47451 -0.7978457,-4.06636 -0.804283,-0.80428 -2.0691156,-0.66959 -3.4251898,0.36474 l -0.9220332,0.70326 0.176956,-1.28593 c 0.4134802,-3.00476 2.1633681,-9.68071 2.764393,-10.54636 0.1010364,-0.14552 0.3991239,-0.85989 0.6624187,-1.5875 1.2006765,-3.31802 4.0472329,-7.92518 6.5649949,-10.62545 2.262153,-2.42613 3.63524,-3.26517 5.343461,-3.26517 1.71876,0 2.222418,0.36769 3.729971,2.72299 1.951369,3.0487 4.613431,5.58654 7.271681,6.93236 2.682854,1.35827 3.004648,1.68392 2.808896,2.84257 -0.08024,0.47494 -0.292827,1.88549 -0.472413,3.13454 l -0.32652,2.27101 h -0.794991 c -0.573212,0 -0.995188,0.2398 -1.512609,0.85959 -0.894739,1.07175 -1.125077,2.1621 -0.750565,3.55294 0.402992,1.49659 2.529382,5.66293 3.241643,6.35151 0.323686,0.31292 0.471313,0.47965 0.328062,0.37051 -0.485923,-0.37022 -2.788801,-0.20071 -4.113958,0.30281 -6.705722,2.54797 -14.095219,14.00068 -12.385108,19.19522 0.481324,1.46205 0.359388,1.56403 -0.255178,0.21343 z m 79.845627,-1.94068 c -0.01622,-3.0742 -0.994019,-5.7244 -3.463944,-9.38864 -3.210475,-4.76287 -7.593142,-8.18249 -11.141244,-8.69305 -1.132834,-0.16301 -1.315762,-0.10687 -2.248958,0.69026 -0.987576,0.84358 -0.982705,0.83105 0.175144,-0.45035 1.545598,-1.71054 3.499707,-5.81904 3.633803,-7.64005 0.12142,-1.64886 -0.579935,-2.97049 -1.707708,-3.21801 -0.404696,-0.0888 -0.866159,-0.20025 -1.025469,-0.24762 -0.159311,-0.0474 -0.362519,-1.01969 -0.45157,-2.16071 -0.08905,-1.14103 -0.298297,-2.46303 -0.464984,-2.9378 -0.16669,-0.47476 -0.238715,-1.03091 -0.16006,-1.23588 0.07866,-0.20498 1.214491,-0.92608 2.524075,-1.60245 1.309584,-0.67638 2.926836,-1.71018 3.593891,-2.29735 1.395589,-1.22845 3.294398,-3.61819 4.094366,-5.15296 0.302662,-0.58067 0.910275,-1.40065 1.35025,-1.82217 0.664755,-0.63688 0.999699,-0.75771 1.981809,-0.71497 5.554263,0.24173 12.621993,11.49055 15.341023,24.4164 0.21692,1.03119 0.3944,2.12369 0.3944,2.42777 0,0.50482 -0.0403,0.51759 -0.46302,0.1469 -0.68332,-0.59913 -2.08369,-1.26354 -2.66316,-1.26354 -0.27864,0 -0.80246,0.2327 -1.16402,0.51711 -0.6276,0.49367 -0.66443,0.68261 -0.81229,4.16719 -0.1006,2.37063 -0.34485,4.37767 -0.69682,5.7258 -0.65114,2.49399 -2.385426,6.10507 -4.40362,9.16907 -0.81474,1.23692 -1.645584,2.54661 -1.846324,2.91041 -0.336809,0.61041 -0.365794,0.50658 -0.37557,-1.34536 z M 76.060902,143.82484 c -0.08223,-3.66999 -3.004314,-9.12267 -8.828624,-16.47441 -3.817591,-4.81875 -4.515384,-5.82433 -5.496335,-7.92068 -1.607656,-3.43567 -2.227818,-7.44717 -2.504506,-16.20032 -0.29496,-9.331186 -0.974355,-18.017224 -1.744472,-22.302987 l -0.299273,-1.665483 -1.62329,0.07798 -1.62329,0.07798 -0.328102,1.322916 c -0.915966,3.693189 -1.499407,9.960374 -1.92124,20.637494 -0.319603,8.08956 -0.634502,11.41626 -1.34733,14.23364 -0.985437,3.89486 -1.93612,5.5422 -6.596829,11.43094 -5.460291,6.89901 -7.8433,11.15937 -8.879599,15.875 -0.09594,0.43657 -0.229174,0.64503 -0.296076,0.46325 -0.240568,-0.65361 0.491,-3.1313 1.641937,-5.56096 1.553052,-3.27853 3.887423,-6.79218 7.511685,-11.30645 3.504411,-4.365 4.785566,-6.42325 5.69246,-9.1453 1.045591,-3.13836 1.449893,-6.12478 1.745001,-12.88972 0.479851,-10.999834 0.80156,-15.705255 1.333701,-19.507135 0.582141,-4.159102 0.884129,-5.418902 1.373412,-5.729459 0.540338,-0.342964 3.282847,-0.25899 3.580781,0.109638 0.669388,0.828222 1.542103,9.489894 1.912734,18.983853 0.509791,13.058563 0.907118,16.586453 2.243208,19.917513 0.937726,2.33787 2.074149,4.05602 5.718035,8.64507 3.859768,4.86091 5.626587,7.52103 7.265688,10.93919 1.437235,2.9972 1.99957,5.06803 1.70982,6.29656 -0.210238,0.8914 -0.212691,0.88824 -0.239496,-0.30813 z"
         id="path360" /><path
         style="fill:#d98437;stroke-width:0.264583"
         d="m 12.864803,258.53983 c -0.01199,-0.14552 -0.217562,-1.1544 -0.456835,-2.24196 -1.788033,-8.12714 -2.388928,-14.34907 -2.377067,-24.61324 0.0087,-7.49704 0.07147,-8.69324 0.625131,-11.90625 0.338527,-1.96453 0.655654,-3.61575 0.704731,-3.66937 0.04908,-0.0536 0.720045,0.43467 1.491041,1.0851 1.989338,1.67825 5.028533,3.40024 6.302864,3.57116 0.847119,0.11363 1.253511,0.022 1.846138,-0.41612 l 0.759907,-0.56183 1.092536,1.2523 1.092536,1.2523 -0.137877,1.8657 c -0.07583,1.02613 -0.222975,2.08745 -0.326985,2.3585 -0.141356,0.36837 -0.100618,0.43813 0.161316,0.27624 0.236398,-0.1461 0.287364,-0.11454 0.156623,0.097 -0.274468,0.4441 0.313627,5.82556 0.92883,8.49943 0.637514,2.77083 1.668172,5.929 2.676726,8.20209 1.01931,2.29733 3.157546,5.82952 3.427818,5.66248 0.118996,-0.0735 0.161633,0.0213 0.09475,0.21075 -0.425019,1.20389 -0.167193,7.33968 0.367506,8.74605 l 0.225938,0.59426 h -9.316912 c -6.020358,0 -9.324626,-0.0936 -9.338712,-0.26459 z m 66.605139,-0.13229 c 0.393573,-0.74758 0.847955,-5.15843 0.756417,-7.34281 -0.05032,-1.20088 -0.02349,-2.18315 0.0596,-2.18281 0.569746,0.002 4.371406,-8.23036 4.872556,-10.55179 0.113297,-0.52481 0.271775,-0.76805 0.383074,-0.58796 0.10441,0.16893 0.186307,-0.0831 0.181994,-0.56009 -0.0043,-0.47698 0.187457,-1.76021 0.426154,-2.85162 0.621635,-2.84233 1.026686,-6.88912 0.972841,-9.71948 l -0.04649,-2.44344 0.992518,-1.21124 0.992516,-1.21124 0.618966,0.58149 c 0.502684,0.47225 0.83643,0.55698 1.776526,0.45102 1.335109,-0.15049 4.139515,-1.70131 6.386541,-3.53173 0.828615,-0.67498 1.556557,-1.17726 1.617647,-1.11617 0.197498,0.1975 0.919468,4.22814 1.317048,7.35287 0.95036,7.46917 0.16969,20.93625 -1.786832,30.82396 -0.431921,2.18281 -0.793207,4.08781 -0.802856,4.23333 -0.01135,0.17113 -3.357232,0.26459 -9.472353,0.26459 -8.320751,0 -9.429752,-0.0476 -9.245872,-0.39688 z"
         id="path358" /><path
         style="fill:#d57930;stroke-width:0.264583"
         d="m 52.334051,165.58992 c -1.97168,-0.69822 -3.574782,-1.71366 -4.794564,-3.03696 -1.012994,-1.09897 -1.833917,-2.30583 -1.568458,-2.30583 0.06508,0 1.037183,-0.1758 2.160228,-0.39068 2.156118,-0.41253 4.193042,-1.09824 5.99858,-2.01936 1.049557,-0.53544 1.125691,-0.53935 2.037379,-0.1046 1.939962,0.92511 4.302984,1.70307 6.495594,2.13852 1.242179,0.24669 2.25851,0.53409 2.25851,0.63865 0,0.10456 -0.723217,0.97937 -1.607148,1.94402 -2.218465,2.42107 -4.239247,3.38535 -7.369423,3.51657 -1.700247,0.0713 -2.604384,-0.024 -3.610698,-0.38033 z m 57.864639,-11.48121 c -0.34263,-0.59534 -1.10381,-1.60409 -1.69151,-2.24167 -0.5877,-0.63758 -0.86342,-1.08052 -0.61273,-0.98431 0.39968,0.15336 0.43415,0.0483 0.27986,-0.85274 -0.37822,-2.20903 -1.1905,-5.88063 -1.70583,-7.71056 -0.62878,-2.23281 -3.43017,-8.73997 -4.38198,-10.1786 -0.35897,-0.54259 -0.65268,-1.06126 -0.65268,-1.15261 0,-0.38006 -3.508406,-4.62059 -4.736035,-5.72434 -1.656932,-1.48972 -2.955285,-2.12051 -4.663461,-2.26568 -1.292913,-0.10987 -1.358794,-0.0804 -2.38125,1.06341 -0.57835,0.64703 -1.468266,1.87359 -1.977589,2.72571 -1.597062,2.67194 -4.004061,4.84853 -6.939777,6.27549 -2.71305,1.31872 -3.22309,1.91537 -2.612551,3.05618 0.155239,0.29006 0.42907,1.6054 0.608513,2.92297 0.307035,2.25443 0.365781,2.40175 0.997016,2.50032 0.508023,0.0793 0.444666,0.11435 -0.261147,0.14438 -0.598797,0.0255 -1.269478,0.3179 -1.876313,0.8181 l -0.944412,0.77847 -0.314746,-1.37378 c -0.426879,-1.86321 -1.943737,-5.10027 -3.774342,-8.05467 -1.386334,-2.23739 -2.932848,-4.30706 -7.364362,-9.85556 -1.963083,-2.4579 -3.55714,-5.57331 -4.236632,-8.28005 -0.70394,-2.80412 -0.992719,-6.10158 -1.325518,-15.13558 -0.380534,-10.329794 -1.295513,-19.917243 -2.011338,-21.075472 -0.371248,-0.600692 6.595446,-0.07583 10.933424,0.823717 3.934714,0.815922 4.051451,0.824722 4.995886,0.376557 0.941896,-0.446958 2.67575,-2.518627 3.902519,-4.662865 0.311568,-0.544582 0.653019,-0.991066 0.758775,-0.992188 0.376849,-0.004 2.383727,2.781059 3.264966,4.530968 0.492858,0.978683 1.124178,2.60245 1.402932,3.608369 0.278755,1.005922 0.698109,2.198844 0.931897,2.650942 0.946798,1.830904 3.485933,2.966017 6.634689,2.966017 H 92.4022 l -0.908148,1.349504 c -1.349232,2.004949 -1.254,2.607027 0.880187,5.564769 4.277503,5.928132 6.918274,10.517432 10.130551,17.605482 3.19324,7.04607 4.04809,8.4874 9.46668,15.96149 2.05393,2.83306 4.29459,7.04329 3.60823,6.77991 -0.26055,-0.1 -1.3009,-0.32363 -2.3119,-0.497 l -1.83817,-0.31521 -0.66397,0.77191 c -0.75336,0.87584 -0.76517,0.42605 0.20506,7.81248 0.58425,4.44792 0.63046,9.95525 0.0916,10.91811 -0.19911,0.35579 -0.34826,0.24313 -0.86365,-0.65237 z M 77.234686,124.03137 c 1.346134,-0.61147 3.108042,-2.59129 3.515061,-3.9498 0.491019,-1.63887 0.38,-4.23897 -0.239419,-5.60735 -1.105593,-2.44241 -2.97307,-3.70779 -5.458155,-3.69836 -1.955083,0.007 -3.343201,0.64004 -4.738039,2.15933 -1.344337,1.46427 -1.808006,2.75109 -1.793909,4.97861 0.02972,4.69552 4.671488,7.95405 8.714461,6.11757 z m -77.49562346,29.93191 c -0.29813778,-1.80373 -0.16485393,-7.82554 0.23571199,-10.64948 0.21673872,-1.52797 0.46820399,-3.68494 0.55881584,-4.79326 0.14930702,-1.82629 0.11183937,-2.06805 -0.39980127,-2.57969 -0.67166328,-0.67167 -1.5649283,-0.71038 -3.4530399,-0.14968 -0.7683711,0.22819 -1.4412991,0.37062 -1.4953958,0.31652 -0.2383234,-0.23832 2.9245109,-5.47329 5.48907997,-9.08525 3.89965383,-5.49231 5.04174893,-7.46542 7.51184593,-12.97768 3.4057557,-7.60026 5.7936237,-11.82112 10.0391377,-17.74543 2.570827,-3.587406 2.701105,-4.12064 1.429266,-5.850073 -0.449151,-0.610751 -0.925401,-1.110456 -1.058333,-1.110456 -0.132932,0 -0.241695,-0.119062 -0.241695,-0.264583 0,-0.153503 0.860881,-0.265203 2.050521,-0.26606 2.447806,-0.0019 3.525602,-0.270221 5.102363,-1.270915 1.301511,-0.826006 1.808384,-1.667013 2.634479,-4.371173 0.303631,-0.993908 0.913453,-2.572004 1.355162,-3.506878 0.80305,-1.699656 2.697718,-4.343307 3.112791,-4.343307 0.121052,0 0.740518,0.744141 1.37659,1.653646 1.596805,2.283235 3.054683,3.820435 3.800924,4.007728 0.345692,0.08676 2.692525,-0.258582 5.215184,-0.767437 3.618732,-0.729946 5.213601,-0.925187 7.55756,-0.925187 h 2.970911 l -0.272367,0.716378 c -0.875049,2.301555 -1.718437,10.987693 -2.101242,21.640917 -0.366783,10.20742 -0.749064,13.00247 -2.29789,16.80104 -0.956691,2.34632 -1.91992,3.81289 -5.135205,7.81864 -3.562233,4.43798 -4.35538,5.55155 -6.115126,8.58552 -1.62365,2.79934 -2.848396,5.6944 -3.052384,7.21526 -0.127013,0.94694 -0.161547,0.97937 -0.610312,0.57325 -0.261625,-0.23677 -0.930047,-0.59253 -1.485381,-0.79059 -0.555337,-0.19806 -0.801344,-0.36534 -0.546682,-0.37172 0.353711,-0.009 0.46302,-0.23811 0.46302,-0.97103 0,-0.52768 0.191437,-2.08249 0.425413,-3.45514 0.233977,-1.37265 0.382805,-2.53011 0.33073,-2.57214 -0.05208,-0.042 -1.329796,-0.71708 -2.839376,-1.50012 -2.354874,-1.2215 -3.040669,-1.74006 -4.828646,-3.65109 -1.146175,-1.22506 -2.088779,-2.3587 -2.094677,-2.51921 -0.01842,-0.50111 -2.234943,-3.18474 -2.914443,-3.52863 -1.918036,-0.97069 -4.361746,0.0698 -7.179583,3.05681 -3.3499208,3.55109 -5.2550424,6.90076 -8.3036111,14.59977 -0.5042403,1.27344 -1.3363681,4.5435 -1.6831971,6.61458 -0.6349338,3.79147 -0.6251337,3.52659 -0.1233461,3.33403 0.2529337,-0.0971 -0.07207,0.393 -0.7222331,1.08902 -0.6501606,0.69602 -1.4101682,1.65245 -1.68890676,2.12539 -0.27873853,0.47294 -0.58461007,0.85989 -0.67971719,0.85989 -0.09510448,0 -0.24671601,-0.44648 -0.33691511,-0.99218 z M 39.454657,123.42329 c 4.498099,-3.18687 3.143509,-10.98594 -2.156926,-12.41854 -1.862764,-0.50347 -4.405675,0.37099 -5.789054,1.99075 -2.353982,2.7562 -2.102053,7.1704 0.55744,9.76732 2.06111,2.01262 5.097013,2.28401 7.38854,0.66047 z"
         id="path356" /><path
         style="fill:#a9551a;stroke-width:0.264583"
         d="m -16.795786,258.98946 1.229762,-0.0795 0.714994,-2.29324 c 0.393247,-1.26128 1.290611,-3.44028 1.994141,-4.84223 1.226777,-2.44463 4.2854344,-6.86066 4.7518789,-6.86066 0.1230895,0 0.2952221,0.80368 0.3825161,1.78594 0.22538,2.53606 1.1564805,9.33272 1.4943454,10.90813 l 0.284988,1.32885 h 2.5798117 c 1.4188969,0 2.63961023,-0.0598 2.71270137,-0.13289 0.0730885,-0.0731 -0.19986624,-1.5841 -0.60656517,-3.35781 -1.2559982,-5.47766 -1.6024674,-9.12592 -1.6032691,-16.88222 -0.00106,-9.21357 0.7142427,-17.1799 2.30618229,-25.68771 0.6833314,-3.65194 2.14250841,-9.64077 2.50593741,-10.28499 0.173355,-0.30731 0.4544351,0.0804 1.1431217,1.57687 2.5675721,5.57905 8.0651954,11.73648 13.1361434,14.71268 2.541556,1.49168 3.497929,1.68414 4.540086,0.91364 0.431755,-0.31921 0.880753,-0.54267 0.997776,-0.49658 0.117025,0.0461 1.212426,1.15416 2.434227,2.46237 1.756857,1.88112 1.917112,2.1096 0.766246,1.09251 -0.800364,-0.70733 -1.85715,-1.7546 -2.348412,-2.32725 l -0.893207,-1.04119 -0.579056,0.54399 c -0.962443,0.90417 -2.363462,0.72121 -4.707866,-0.61481 -1.118389,-0.63734 -2.763025,-1.76843 -3.65475,-2.51354 -0.891723,-0.7451 -1.702494,-1.35474 -1.80171,-1.35474 -0.09922,0 -0.462999,1.69665 -0.808402,3.77032 -1.2358134,7.41935 -1.0132909,20.72122 0.505685,30.22864 0.568084,3.55571 1.558353,8.59513 1.751126,8.91141 0.06039,0.0991 -0.04096,0.27419 -0.225237,0.38913 -0.184275,0.11494 -7.0620758,0.21247 -15.2840025,0.21672 -8.2219265,0.004 -14.3955635,-0.0281 -13.7191925,-0.0718 z M 6.9096462,258.3414 C 5.7094407,252.829 4.7429179,247.72617 4.0656454,243.32629 c -0.6952879,-4.51692 -0.9259993,-5.50241 -1.3796168,-5.8931 -0.8640921,-0.74423 -2.35480213,-0.0279 -2.90330452,1.39519 -0.81115958,2.1045 0.34282854,12.2727 2.15777222,19.01289 l 0.2949734,1.09544 H 4.637365 c 2.3528707,0 2.3992521,-0.0121 2.2722812,-0.59531 z M 101.30153,258.94 c -1.542143,-0.079 -2.627969,-0.24595 -2.603006,-0.40017 0.02355,-0.14552 0.40535,-2.12501 0.848423,-4.39887 0.443074,-2.27386 0.995933,-5.90527 1.228573,-8.06979 0.23265,-2.16453 0.52013,-4.82847 0.63885,-5.91988 0.31105,-2.8594 0.33102,-13.49735 0.0303,-16.13958 -0.58102,-5.10498 -1.2675,-8.45843 -1.730644,-8.45416 -0.14552,0.001 -0.978958,0.57972 -1.852083,1.2853 -2.184945,1.76566 -4.791461,3.41129 -5.878591,3.71146 -1.028565,0.284 -1.549212,0.15903 -2.356329,-0.5656 -0.558715,-0.50162 -0.567227,-0.49848 -1.455208,0.53662 -0.491263,0.57265 -1.547315,1.62112 -2.346786,2.32993 -1.108289,0.98261 -0.889883,0.67774 0.919433,-1.28341 l 2.37301,-2.57215 0.682549,0.65392 c 1.159525,1.1109 2.295654,0.81621 5.725657,-1.48512 4.409191,-2.9583 9.945032,-9.32282 12.122382,-13.937 0.42986,-0.91094 0.90257,-1.61592 1.05047,-1.56662 0.64819,0.21606 2.67001,9.17115 3.69726,16.37596 1.06358,7.45965 1.33439,11.51538 1.33007,19.91983 -0.004,8.47559 -0.20259,10.56217 -1.58446,16.67773 -0.35938,1.59048 -0.65342,2.98742 -0.65342,3.1043 0,0.11689 1.21558,0.17859 2.70128,0.13712 l 2.70128,-0.0754 0.45256,-2.24896 c 0.40007,-1.98815 1.17234,-8.02022 1.35495,-10.58333 0.0363,-0.50933 0.18052,-0.92604 0.32051,-0.92604 0.13999,0 0.94231,0.89296 1.78293,1.98437 1.75897,2.28372 3.8666,6.36452 4.93929,9.56345 l 0.74124,2.21051 1.16808,0.13229 c 1.54444,0.17492 -22.93967,0.17797 -26.34857,0.003 z m 7.54872,-1.09171 c 1.01741,-3.77837 2.00993,-9.46174 2.37196,-13.58237 0.30264,-3.44473 0.0344,-5.53176 -0.81691,-6.35474 -1.62069,-1.56686 -2.67349,-0.93043 -3.11098,1.88063 -1.08107,6.94625 -1.51609,9.48286 -2.30768,13.45636 -0.49284,2.47385 -0.97194,4.76581 -1.06468,5.09323 -0.16598,0.58602 -0.13114,0.59531 2.2333,0.59531 h 2.40191 z M 96.209308,171.35963 c 3.565387,-5.27228 5.423462,-9.04163 6.191642,-12.56057 0.22323,-1.02257 0.43428,-3.31619 0.46901,-5.09694 0.0527,-2.7029 0.14276,-3.32569 0.54513,-3.77031 1.28634,-1.42139 4.24391,0.29153 6.50102,3.76514 1.22003,1.87757 1.31841,1.71687 1.49729,-2.44565 0.0962,-2.2373 -0.021,-4.1983 -0.44268,-7.40833 -0.97023,-7.38643 -0.95842,-6.93664 -0.20506,-7.81248 l 0.66397,-0.77191 1.83817,0.31521 c 1.011,0.17337 2.05135,0.39702 2.3119,0.497 0.68636,0.26338 -1.5543,-3.94685 -3.60823,-6.77991 -5.41859,-7.47409 -6.27344,-8.91542 -9.46668,-15.96149 -3.212277,-7.08805 -5.853048,-11.67735 -10.130551,-17.605482 -2.134187,-2.957742 -2.229419,-3.55982 -0.880187,-5.564769 L 92.4022,88.809635 h -1.957236 c -3.148756,0 -5.687891,-1.135113 -6.634689,-2.966017 -0.233788,-0.452098 -0.653142,-1.64502 -0.931897,-2.650942 -0.278754,-1.005919 -0.910074,-2.629686 -1.402932,-3.608369 -0.881239,-1.749909 -2.888117,-4.53496 -3.264966,-4.530968 -0.105756,0.0011 -0.447207,0.447606 -0.758775,0.992188 -1.226769,2.144238 -2.960623,4.215907 -3.902519,4.662865 -0.943925,0.447921 -1.063299,0.439121 -4.995886,-0.368257 -4.678325,-0.960483 -10.370214,-1.345391 -16.861146,-1.140222 -3.213351,0.101568 -5.108204,0.327363 -8.754041,1.043151 -3.389839,0.665528 -4.829159,0.846548 -5.301906,0.666811 -0.778954,-0.296159 -2.075322,-1.696625 -3.647458,-3.940344 -0.637275,-0.909505 -1.257726,-1.653646 -1.378778,-1.653646 -0.415073,0 -2.309741,2.643651 -3.112791,4.343307 -0.441709,0.934874 -1.051531,2.51297 -1.355162,3.506878 -0.826095,2.70416 -1.332968,3.545167 -2.634479,4.371173 -1.576761,1.000694 -2.654557,1.269156 -5.102363,1.270915 -1.18964,7.94e-4 -2.050521,0.112557 -2.050521,0.26606 0,0.145521 0.108763,0.264583 0.241695,0.264583 0.132932,0 0.609182,0.499705 1.058333,1.110456 1.271839,1.729433 1.141561,2.262667 -1.429266,5.850073 -4.245514,5.92431 -6.633382,10.14517 -10.0391377,17.74543 -2.470097,5.51226 -3.6121921,7.48537 -7.51184593,12.97768 -2.56456907,3.61196 -5.72740337,8.84693 -5.48907997,9.08525 0.054097,0.0541 0.7270247,-0.0883 1.4953958,-0.31652 1.8881116,-0.5607 2.78137662,-0.52199 3.4530399,0.14968 0.51164064,0.51164 0.54910829,0.7534 0.39980127,2.57969 -0.0906118,1.10832 -0.34207712,3.26529 -0.55881584,4.79326 -0.57397647,4.04647 -0.50794971,11.64166 0.10120312,11.64166 0.09510712,0 0.40030133,-0.38492 0.67821436,-0.85539 1.29305839,-2.18897 4.21556899,-4.70086 5.46932879,-4.70086 1.3855065,0 1.8123852,0.77082 1.8123852,3.27264 0,1.21787 0.1812528,3.27169 0.4027831,4.56406 0.8193378,4.77988 2.0979789,7.76447 5.5525479,12.96075 1.247572,1.87656 1.959433,3.05474 1.581912,2.61818 -1.419645,-1.64167 -4.121131,-5.93259 -5.254373,-8.34581 C 8.7212297,161.06708 7.9914507,157.9821 7.7971328,153.80931 7.6598749,150.8618 7.5713215,150.36474 7.1254404,150.039 c -0.2824745,-0.20636 -0.6991932,-0.37476 -0.9260416,-0.37421 -1.1590496,0.003 -3.7982127,2.45924 -5.1936145,4.83407 -0.44682832,0.76045 -0.9230783,1.35062 -1.05833329,1.31147 -0.53402175,-0.15457 -0.72488157,-1.70586 -0.73995224,-6.01424 -0.0121444,-3.4682 0.12494948,-5.39312 0.59878645,-8.40822 0.882814,-5.6175 0.52330877,-6.2472 -2.98695522,-5.23186 -1.0031279,0.29015 -1.9270926,0.46375 -2.0532512,0.38578 -0.3749119,-0.23171 2.3382286,-5.22134 4.34366437,-7.98828 4.70545563,-6.49219 6.76814453,-9.95358 8.66939533,-14.5481 2.1320441,-5.15224 5.4879235,-11.21154 9.0873045,-16.407831 3.495365,-5.046125 3.453326,-4.96589 3.077424,-5.873395 -0.182528,-0.440661 -0.793363,-1.262698 -1.357415,-1.826747 -0.56405,-0.564052 -1.025546,-1.081987 -1.025546,-1.150969 0,-0.06898 1.252772,-0.18936 2.783937,-0.267507 2.296285,-0.117195 3.036708,-0.265753 4.226949,-0.848082 1.810837,-0.88596 2.222193,-1.488371 3.260159,-4.774369 1.538419,-4.870323 4.759303,-9.433885 5.428135,-7.69094 0.273847,0.713637 3.067535,4.330533 3.774321,4.886489 0.920803,0.724305 1.199354,0.710134 5.977715,-0.304131 l 4.049824,-0.859623 8.334374,0.0052 8.334375,0.0052 3.987913,0.854442 c 2.193351,0.469945 4.276945,0.854001 4.630209,0.853456 1.167212,-0.0019 2.275845,-0.978916 3.949377,-3.480868 0.90915,-1.359197 1.781931,-2.471267 1.939512,-2.471267 0.496538,0 2.757164,3.036229 3.720414,4.996857 0.508625,1.03527 1.126162,2.692154 1.372307,3.681963 0.6097,2.451772 1.262848,3.340147 3.147888,4.281572 1.379818,0.68911 1.901571,0.797123 4.101041,0.848989 1.386049,0.03268 2.562188,0.06434 2.613641,0.07034 0.05146,0.006 -0.290861,0.448733 -0.7607,0.983853 -1.071528,1.220401 -1.658655,2.596941 -1.427134,3.345955 0.09791,0.31674 0.917231,1.587923 1.820722,2.82485 4.480724,6.134343 6.874066,10.429143 11.395675,20.449303 1.61402,3.57678 3.87166,7.25293 7.26508,11.82986 2.4278,3.27453 5.20778,8.12856 4.85652,8.47982 -0.14481,0.14481 -0.61362,0.13799 -1.17534,-0.0171 -2.33171,-0.64381 -3.38557,-0.72811 -3.97154,-0.31769 -0.52758,0.36954 -0.56012,0.55773 -0.41701,2.41175 0.0854,1.10602 0.35021,3.43969 0.58854,5.18594 0.6241,4.57277 0.39086,12.30406 -0.37115,12.30285 -0.0936,-1.4e-4 -0.51967,-0.62522 -0.94688,-1.38906 -1.12506,-2.01155 -3.4596,-4.37153 -4.68869,-4.73977 -0.8784,-0.26317 -1.0869,-0.23952 -1.5453,0.17532 -0.45968,0.41601 -0.53015,0.81592 -0.53189,3.01823 -0.003,4.43806 -0.73231,7.57496 -2.69639,11.60548 -1.092305,2.24154 -4.125308,6.97689 -5.37747,8.3957 -0.385286,0.43656 0.06438,-0.33735 0.999268,-1.71979 z m -43.855696,-5.13348 c -1.771528,-0.56173 -3.317086,-1.46906 -4.690065,-2.75332 -1.211984,-1.13367 -2.788179,-3.37627 -2.544355,-3.6201 0.05825,-0.0583 0.935922,-0.23478 1.950376,-0.39228 2.225228,-0.34548 4.786397,-1.13593 6.509176,-2.00893 0.69895,-0.35418 1.436902,-0.64397 1.639893,-0.64397 0.202991,0 1.149135,0.35369 2.102543,0.78599 1.797981,0.81524 4.959683,1.696 7.137119,1.9882 0.691224,0.0928 1.256771,0.28278 1.256771,0.42228 0,0.91102 -2.958526,4.14417 -4.7625,5.20457 -2.214269,1.30157 -6.211511,1.77459 -8.598958,1.01756 z m 7.606384,-1.18477 c 1.267376,-0.60486 2.188276,-1.31532 3.354176,-2.5877 0.883931,-0.96465 1.607148,-1.83946 1.607148,-1.94402 0,-0.10456 -1.016331,-0.39196 -2.25851,-0.63865 -2.19261,-0.43545 -4.555632,-1.21341 -6.495594,-2.13852 -0.911688,-0.43475 -0.987822,-0.43084 -2.037379,0.1046 -1.805538,0.92112 -3.842462,1.60683 -5.99858,2.01936 -1.123045,0.21488 -2.095148,0.39068 -2.160228,0.39068 -0.265459,0 0.555464,1.20686 1.568458,2.30583 2.219116,2.40745 5.048983,3.55798 8.405262,3.41729 1.877634,-0.0787 2.569056,-0.23866 4.015247,-0.92887 z M 34.100287,124.12093 c -3.378859,-1.28818 -5.301475,-6.33823 -3.622538,-9.51517 2.621828,-4.96112 8.411199,-5.0198 10.864588,-0.11013 1.639975,3.28188 0.857456,6.98275 -1.88768,8.92766 -1.515859,1.07398 -3.640968,1.35086 -5.35437,0.69764 z m 4.884872,-0.88145 c 0.715065,-0.42861 1.500624,-1.22218 1.984375,-2.00464 0.695825,-1.12546 0.800745,-1.54302 0.800745,-3.18671 0,-6.05072 -6.023175,-8.96348 -9.880914,-4.77833 -2.113804,2.29321 -2.207641,5.79555 -0.22493,8.39506 1.948831,2.55509 4.698312,3.14648 7.320724,1.57462 z m 33.124461,0.60009 c -2.28111,-1.13672 -3.572579,-3.26882 -3.589395,-5.92577 -0.0141,-2.22752 0.449572,-3.51434 1.793909,-4.97861 1.394838,-1.51929 2.782956,-2.15191 4.738039,-2.15933 3.482805,-0.0132 5.989693,2.73387 6.002919,6.57808 0.0079,2.28506 -0.416121,3.53853 -1.684165,4.97911 -1.987984,2.25847 -4.645787,2.80989 -7.261307,1.50652 z m 4.343813,0.0354 c 2.249511,-0.66804 3.995835,-2.93957 4.265019,-5.54774 0.401492,-3.89006 -2.341975,-7.29345 -5.875258,-7.28852 -2.170945,0.003 -5.05207,2.3529 -5.693425,4.6436 -0.402691,1.43826 -0.216966,3.94544 0.377404,5.09483 0.666208,1.2883 2.117556,2.59456 3.377949,3.04025 1.475216,0.52166 1.959125,0.52951 3.548311,0.0576 z M 2.5546392,110.43932 c 0.075168,-0.32742 0.7438919,-1.92944 1.4860534,-3.56005 0.7934615,-1.74332 1.3493802,-3.34275 1.3493802,-3.8823 0,-1.25827 -1.0046176,-2.37524 -2.9320595,-3.259954 -0.8612213,-0.395309 -1.56585696,-0.808842 -1.56585696,-0.918962 0,-0.332949 0.82360286,-0.67148 3.44910026,-1.417719 1.3772144,-0.391441 2.604709,-0.805183 2.727764,-0.919427 C 7.1920783,96.366666 6.623547,95.318151 5.8056168,94.150879 0.80917772,87.020427 -0.24825334,78.465633 2.1072235,64.230297 3.3539189,56.695892 4.6199686,52.784409 5.8692914,52.607342 c 1.1226508,-0.159115 4.006527,2.03464 8.2715336,6.292132 3.48702,3.48088 11.305071,12.422682 12.414014,14.19838 0.29355,0.470051 0.219435,0.687589 -0.600022,1.761135 -0.858004,1.124046 -1.930734,3.133027 -2.568157,4.809575 -0.335132,0.881465 -0.69292,0.852628 -1.183143,-0.09536 -1.224931,-2.368754 -7.61008,-9.657289 -9.193535,-10.494256 -2.297223,-1.214244 -4.2421909,0.216408 -5.2418052,3.855688 -0.8490638,3.091188 -0.8783876,8.109836 -0.066471,11.377083 0.7631403,3.070971 2.2217061,7.019348 3.5022782,9.480769 0.585891,1.126157 1.065255,2.23374 1.065255,2.4613 0,0.22756 -1.280872,2.2484 -2.8463817,4.490752 -3.0863856,4.42077 -4.5830196,6.73787 -5.7492473,8.90103 -0.7703291,1.42884 -1.3609584,1.8478 -1.1189708,0.79375 z M 107.36148,109.64557 c -0.69193,-1.38127 -4.1991,-6.71442 -7.29066,-11.086448 l -1.618634,-2.289053 1.352989,-2.73803 c 2.901205,-5.871133 4.081975,-10.2559 4.086025,-15.173446 0.004,-4.650096 -1.00128,-8.243993 -2.59826,-9.290372 -0.93826,-0.614775 -2.768657,-0.35827 -4.118464,0.577146 -1.392335,0.964891 -5.083645,5.143418 -7.288225,8.250206 -0.955172,1.346067 -1.814187,2.447395 -1.908921,2.447395 -0.09474,0 -0.442206,-0.696206 -0.772157,-1.547122 -0.329949,-0.850915 -1.133015,-2.342014 -1.784591,-3.313548 -0.651573,-0.971535 -1.18468,-1.914692 -1.18468,-2.095905 0,-0.498203 8.19586,-10.224545 11.507417,-13.656294 4.398101,-4.557723 8.073851,-7.321211 9.467731,-7.117974 0.82247,0.119923 1.41362,1.338416 2.30727,4.755814 1.92709,7.369304 2.95878,17.023913 2.43155,22.754565 -0.5355,5.820566 -1.89613,9.879581 -4.61338,13.762524 -0.6185,0.883838 -1.24361,1.777291 -1.38913,1.985454 -0.3653,0.522555 0.35584,1.016831 2.07207,1.420217 1.83068,0.430284 4.14564,1.29717 4.14564,1.552419 0,0.113234 -0.77498,0.535252 -1.72218,0.937816 -2.22174,0.944256 -3.14583,1.990706 -2.96282,3.355126 0.0731,0.54496 0.79993,2.42705 1.6152,4.18242 0.81526,1.75537 1.4823,3.30962 1.4823,3.45387 0,0.67439 -0.58564,0.13176 -1.21609,-1.12678 z"
         id="path354" /><path
         style="fill:#b72a16;stroke-width:0.264583"
         d="m -55.440472,229.32137 c -1.538196,-5.06418 -1.698628,-6.46527 -1.812246,-15.82685 l -0.106771,-8.79739 h 26.61228 c 14.636757,0 26.6122822,0.0771 26.6122822,0.17122 0,0.0942 -0.4253997,2.14801 -0.9453297,4.56407 -1.3791723,6.40884 -2.5757345,14.98451 -2.8279697,20.26783 l -0.063159,1.32292 -23.4555648,0.0676 -23.455567,0.0676 z m 174.232802,1.41558 c -0.0883,-0.23019 -0.1606,-1.00924 -0.1606,-1.73122 0,-3.59614 -1.37472,-13.30424 -2.80401,-19.80158 -0.49509,-2.25056 -0.90015,-4.18532 -0.90015,-4.29947 0,-0.11416 11.917,-0.20755 26.48223,-0.20755 h 26.48224 l -0.11931,8.92969 c -0.1266,9.47494 -0.29102,10.92393 -1.79045,15.7785 l -0.54056,1.75014 h -23.24439 c -20.95177,0 -23.26024,-0.0413 -23.405,-0.41851 z"
         id="path352" /><path
         style="fill:#004173;stroke-width:0.264583"
         d="m -57.684758,203.25596 c -0.137732,-0.76292 -0.159838,-28.12604 -0.053,-65.60113 0.175101,-61.418105 0.205701,-64.423322 0.684487,-67.223923 1.022898,-5.983306 3.970955,-12.867176 7.598305,-17.742449 7.05292,-9.479349 18.506007,-16.04272 30.183019,-17.296852 3.717028,-0.399215 145.795767,-0.413697 149.489627,-0.01524 9.69646,1.045965 18.29424,5.234318 25.47176,12.408399 6.45394,6.450838 10.15968,13.471001 11.94907,22.636326 l 0.56822,2.910416 0.0786,59.266663 c 0.0432,32.59667 -0.0198,62.12417 -0.14008,65.61667 l -0.2187,6.35 -0.0412,-4.85696 c -0.0383,-4.51714 -0.0736,-4.84292 -0.50419,-4.6565 -1.5018,0.65015 -6.12885,1.46146 -9.19427,1.61213 -6.223,0.30587 -9.2065,-0.52651 -16.54008,-4.61459 -6.78814,-3.78404 -9.15198,-4.54971 -14.04623,-4.54971 -2.91299,0 -5.68162,0.52172 -7.85629,1.48044 -1.61096,0.7102 -1.48266,0.86342 -1.90435,-2.27419 -0.33391,-2.48444 -1.09638,-5.70706 -1.87583,-7.92833 -0.78412,-2.23456 -0.77051,-2.26115 1.54309,-3.01575 6.12185,-1.99667 10.79557,-2.15652 15.99188,-0.54696 1.20902,0.3745 4.46042,1.79473 7.22531,3.15607 5.7951,2.85331 8.52334,3.86736 12.01902,4.46734 4.19867,0.72062 7.88134,0.46601 12.91851,-0.89317 l 2.18226,-0.58883 v -7.34382 -7.34382 l -1.69867,0.47103 c -5.27853,1.46369 -12.32028,1.8668 -16.42529,0.94027 -2.75899,-0.62272 -6.50455,-2.02286 -9.72233,-3.63431 -5.48177,-2.74526 -8.41315,-3.52378 -13.29641,-3.5313 -4.59636,-0.007 -7.19527,0.6612 -12.03623,3.09494 -1.96326,0.98701 -3.63638,1.79456 -3.71805,1.79456 -0.17786,0 -1.1517,-2.6403 -1.01183,-2.7433 0.0536,-0.0394 0.58973,-0.21291 1.19151,-0.38552 1.61605,-0.46352 3.16363,-2.12066 4.33347,-4.64025 0.54975,-1.18404 1.08316,-2.56952 1.18537,-3.07885 0.31452,-1.56737 0.75275,-1.99122 2.55741,-2.47349 3.2705,-0.874 5.86372,-1.23067 8.9476,-1.23067 5.53267,0 8.96152,0.95402 16.18377,4.50288 5.02889,2.47109 7.50065,3.3168 10.92343,3.73744 3.00377,0.36914 5.97577,0.051 9.84035,-1.05337 l 2.61361,-0.74689 0.0695,-9.43774 0.0695,-9.43774 H 145.3692 122.88747 l -0.56699,-1.91823 c -1.27385,-4.30966 -2.74161,-6.94625 -7.21763,-12.96534 -2.49933,-3.36097 -4.6732,-6.63395 -4.6732,-7.03601 0,-0.14485 0.38695,-0.34689 0.8599,-0.44897 1.18064,-0.25484 2.60638,-1.00627 3.24114,-1.70825 1.035,-1.14458 0.42745,-3.88595 -1.88967,-8.52649 -0.48865,-0.97863 -0.88845,-1.83249 -0.88845,-1.89747 0,-0.065 0.83698,-0.50392 1.85996,-0.97544 1.09649,-0.50541 2.23685,-1.27448 2.77812,-1.87361 1.91087,-2.115092 0.92156,-4.907079 -2.38912,-6.742546 -0.87313,-0.484066 -1.69613,-0.917834 -1.82889,-0.963927 -0.13277,-0.0461 0.20068,-1.208461 0.741,-2.583032 0.54031,-1.374574 1.285,-3.68985 1.65487,-5.145058 1.43687,-5.653275 1.02346,-16.712146 -0.97895,-26.186997 -1.38693,-6.562558 -2.61414,-9.643443 -4.55326,-11.430862 -1.61394,-1.487675 -2.2031,-1.755325 -3.91505,-1.778584 -3.15534,-0.04287 -7.265281,2.862735 -14.408549,10.186412 -2.185831,2.24104 -5.038966,5.324771 -6.340298,6.85274 -2.738588,3.215534 -2.739657,3.216458 -3.345997,2.891954 -0.868392,-0.464749 -2.2371,-0.266716 -3.327783,0.481483 -1.311474,0.89966 -2.172248,1.906077 -4.266205,4.98805 -2.27542,3.349056 -2.238021,3.322232 -3.994883,2.865265 -3.774826,-0.981845 -7.313157,-1.227921 -15.628715,-1.086908 -5.803333,0.09841 -8.627117,0.252267 -10.054166,0.547801 -1.091406,0.226025 -2.462794,0.486016 -3.047531,0.577755 l -1.06316,0.166798 -1.74485,-2.474952 c -2.810481,-3.986474 -3.87247,-5.21091 -5.033158,-5.80305 C 31.81021,66.289813 30.724074,66.243524 29.695834,66.693313 29.367129,66.837098 28.549818,66.067362 26.297182,63.492485 22.231836,58.845587 15.615842,52.154216 13.082716,50.127466 10.581504,48.126248 8.1029726,46.837134 6.3058009,46.602708 5.177361,46.455512 4.789175,46.538584 3.5390558,47.194779 c -3.24355337,1.70256 -4.936241,5.711881 -6.737265,15.957957 -2.2304109,12.68886 -1.8754671,20.442956 1.291328,28.210501 0.5167471,1.267478 0.91144192,2.328415 0.8771017,2.357635 -0.034343,0.02922 -0.7871301,0.416325 -1.6728625,0.860227 -2.7482613,1.377352 -4.1752703,3.575558 -3.5503562,5.469071 0.3776477,1.14428 2.0694437,2.62405 3.6792559,3.21814 1.97425461,0.72859 1.95989302,0.63581 0.5589878,3.61144 -2.0599002,4.37538 -2.546834,6.603 -1.7058136,7.80372 0.5069628,0.72379 2.0163948,1.5082 3.37806754,1.75549 0.76374356,0.1387 0.97583885,0.28444 0.85859139,0.58998 -0.21980259,0.57279 -3.69588233,5.70342 -6.51506523,9.61611 -2.7275498,3.78551 -4.1812556,6.57342 -5.1046006,9.78958 l -0.645665,2.24896 -22.71732,0.0529 -22.717322,0.0529 -0.06961,9.17105 c -0.06584,8.67469 -0.04436,9.16015 0.396875,8.9697 5.234238,-2.25928 9.767177,-3.27706 14.753983,-3.31271 5.923356,-0.0423 9.837348,1.16975 15.874999,4.91619 3.328493,2.06537 3.245988,2.02426 6.024861,3.00243 4.455009,1.56819 9.204968,1.65302 14.9623483,0.26721 l 2.3916507,-0.57568 0.8438515,0.71005 c 0.4641161,0.39053 1.18676198,0.88738 1.60588048,1.10412 0.52078994,0.26931 0.76203172,0.59652 0.76203172,1.03359 0,1.08318 -1.35847925,4.38653 -1.9557311,4.75566 -0.8592978,0.53108 -4.7512523,1.4073 -8.3864764,1.8881 -3.9156212,0.51789 -7.4807332,0.37837 -11.2777132,-0.44133 -2.828687,-0.61067 -3.77054,-0.96762 -9.840454,-3.72941 -5.23843,-2.38346 -8.09684,-3.12616 -12.031361,-3.12609 -1.61845,2e-5 -3.840413,0.17183 -4.937693,0.38181 -2.443996,0.46767 -5.997421,1.7342 -7.860673,2.80174 l -1.389062,0.79586 v 6.74152 c 0,3.70783 0.09525,6.74152 0.211667,6.74152 0.116416,0 0.324776,-0.10955 0.46302,-0.24344 0.426275,-0.41284 4.892514,-2.08316 7.262812,-2.7162 1.927241,-0.51471 2.892394,-0.5996 6.746875,-0.59341 4.494334,0.007 4.500234,0.008 7.408333,0.99859 1.600729,0.54525 5.529792,2.29941 8.73125,3.89814 6.284608,3.13838 8.096059,3.74735 12.700041,4.26947 1.83414,0.208 3.238889,0.21978 4.5788052,0.0384 1.0631117,-0.14391 1.9787023,-0.18759 2.0346458,-0.0971 0.055943,0.0905 7.937e-4,1.24028 -0.1225153,2.55501 -0.2520368,2.68684 0.019791,5.84856 0.6845538,7.96198 0.2427155,0.77166 0.3863181,1.458 0.3191192,1.5252 -0.3243765,0.32437 -5.9451447,0.70908 -8.2918057,0.56752 -5.300165,-0.31973 -7.770278,-1.00166 -13.977585,-3.85888 -5.739995,-2.64211 -7.896074,-3.22617 -12.513307,-3.38974 -5.307398,-0.188 -9.60353,0.69265 -14.046812,2.87943 l -2.176527,1.07119 -0.07243,4.40701 c -0.05826,3.54504 -0.118647,4.15101 -0.308723,3.09813 z M -9.3592329,90.727864 c 1.371338,-1.533869 1.6496585,-6.211327 0.5097092,-8.56615 -0.7140628,-1.475057 -1.9446293,-2.754119 -3.3293363,-3.460546 -0.997297,-0.508781 -2.555687,-0.637815 -4.908772,-0.406445 -0.565507,0.0556 -0.674386,-0.07311 -0.841251,-0.994463 -1.12763,-6.226299 -6.886281,-10.966193 -13.336391,-10.977067 -3.765142,-0.0063 -6.955231,1.301416 -9.6735,3.965609 -2.919467,2.861392 -4.24648,6.158317 -4.304659,10.694789 l -0.0342,2.666669 -1.392968,0.170013 c -3.147081,0.384106 -5.061071,3.508237 -4.005106,6.53738 l 0.290465,0.833231 h 20.306026 c 19.004986,0 20.3325485,-0.02967 20.7199831,-0.46302 z"
         id="path350" /><path
         style="fill:#002d53;stroke-width:0.264583"
         d="m -20.86071,258.5269 c -0.07987,-0.0799 -1.498703,-0.48159 -3.152949,-0.89269 -13.250092,-3.29285 -24.305484,-12.30669 -29.75168,-24.25759 l -0.892951,-1.95945 23.335297,0.0676 23.3352992,0.0676 -0.069196,3.43958 c -0.068395,3.39965 -0.077515,3.44565 -0.7855955,3.96243 -0.3940201,0.28756 -1.8014517,1.59795 -3.1276287,2.91197 -2.672606,2.64811 -4.842131,5.76339 -6.452115,9.26476 -1.236779,2.68972 -2.48716,6.61934 -2.278915,7.16203 0.151144,0.39387 0.09004,0.4834 -0.159565,0.23379 z m 152.45703,-0.086 c 0.34471,-0.24421 0.27517,-0.63867 -0.52917,-3.00152 -2.30448,-6.7697 -6.58592,-13.06073 -10.91406,-16.03682 l -1.25677,-0.86417 v -3.55916 -3.55917 h 23.1477 23.14771 l -0.62394,1.38907 c -0.34316,0.76398 -0.78416,1.74625 -0.98,2.18281 -0.61851,1.37878 -2.91148,4.95203 -4.49927,7.01146 -5.9424,7.70748 -13.91868,12.95199 -23.52345,15.46697 -1.81901,0.4763 -3.54542,0.95278 -3.83646,1.05885 -0.42054,0.15326 -0.4477,0.13513 -0.13229,-0.0883 z M -57.316174,200.09606 v -4.33902 l 2.182812,-1.0743 c 4.449667,-2.18996 8.743172,-3.07063 14.053097,-2.88254 4.617233,0.16357 6.773312,0.74763 12.513307,3.38974 6.207307,2.85722 8.67742,3.53915 13.977585,3.85888 2.346661,0.14156 7.9674292,-0.24315 8.2918057,-0.56752 0.067199,-0.0672 -0.076404,-0.75354 -0.3191192,-1.5252 -0.6647524,-2.11342 -0.9365906,-5.27514 -0.6845538,-7.96198 0.1233276,-1.31473 0.1784588,-2.46449 0.1225153,-2.55501 -0.055943,-0.0905 -0.9715341,-0.0468 -2.0346458,0.0971 -1.3399162,0.18137 -2.7446652,0.16959 -4.5788052,-0.0384 -4.603982,-0.52212 -6.415433,-1.13109 -12.700041,-4.26947 -3.201458,-1.59873 -7.130521,-3.35289 -8.73125,-3.89814 -2.908099,-0.99058 -2.913999,-0.99137 -7.408333,-0.99859 -3.854481,-0.006 -4.819634,0.0787 -6.746875,0.59341 -2.370298,0.63304 -6.836537,2.30336 -7.262812,2.7162 -0.138244,0.13389 -0.346604,0.24344 -0.46302,0.24344 -0.116417,0 -0.211667,-3.03369 -0.211667,-6.74152 v -6.74152 l 1.389062,-0.79586 c 5.150533,-2.95097 12.572711,-3.9873 18.247365,-2.54781 1.391621,0.35302 4.319219,1.46063 6.582362,2.49035 6.069914,2.76179 7.011767,3.11874 9.840454,3.72941 3.79698,0.8197 7.362092,0.95922 11.2777132,0.44133 3.6352241,-0.4808 7.5271786,-1.35702 8.3864764,-1.8881 0.59725185,-0.36913 1.9557311,-3.67248 1.9557311,-4.75566 0,-0.43707 -0.24124178,-0.76428 -0.76203172,-1.03359 -0.4191185,-0.21674 -1.14176438,-0.71359 -1.60588048,-1.10412 l -0.8438515,-0.71005 -2.3916507,0.57568 c -5.7573803,1.38581 -10.5073393,1.30098 -14.9623483,-0.26721 -2.778873,-0.97817 -2.696368,-0.93706 -6.024861,-3.00243 -6.037651,-3.74644 -9.951643,-4.95853 -15.874999,-4.91619 -4.986806,0.0356 -9.519745,1.05343 -14.753983,3.31271 -0.441236,0.19045 -0.462715,-0.29501 -0.396875,-8.9697 l 0.06961,-9.17105 22.717322,-0.0529 22.71732,-0.0529 0.645665,-2.24896 c 0.923345,-3.21616 2.3770508,-6.00407 5.1046006,-9.78958 2.8191829,-3.91269 6.29526264,-9.04332 6.51506523,-9.61611 0.11724746,-0.30554 -0.0948478,-0.45128 -0.85859139,-0.58998 -1.36167274,-0.24729 -2.87110474,-1.0317 -3.37806754,-1.75549 -0.8410204,-1.20072 -0.3540866,-3.42834 1.7058136,-7.80372 1.40090522,-2.97563 1.41526681,-2.88285 -0.5589878,-3.61144 -1.6098122,-0.59409 -3.3016082,-2.07386 -3.6792559,-3.21814 -0.6249141,-1.893513 0.8020949,-4.091719 3.5503562,-5.469071 0.8857324,-0.443902 1.6385195,-0.831006 1.6728625,-0.860227 0.0343402,-0.02922 -0.3603546,-1.090157 -0.8771017,-2.357635 C -5.0736753,83.595632 -5.4286191,75.841536 -3.1982082,63.152676 -1.3971842,52.9066 0.29550343,48.897279 3.5390568,47.194719 4.789176,46.538524 5.177362,46.455452 6.3058019,46.602648 c 1.7971717,0.234426 4.2757031,1.52354 6.7769151,3.524758 2.533126,2.02675 9.14912,8.718121 13.214466,13.365019 2.252636,2.574877 3.069947,3.344613 3.398652,3.200828 1.02824,-0.449789 2.114376,-0.4035 3.170121,0.135099 1.160688,0.59214 2.222677,1.816576 5.033158,5.803053 l 1.74485,2.474952 1.06316,-0.166798 c 0.584737,-0.09174 1.956125,-0.35173 3.047531,-0.577755 1.427049,-0.295534 4.250833,-0.44939 10.054166,-0.547801 8.315558,-0.141013 11.853889,0.105063 15.628715,1.086908 1.756862,0.456967 1.719463,0.483791 3.994883,-2.865265 2.093957,-3.081973 2.954731,-4.08839 4.266205,-4.98805 1.090683,-0.748199 2.459391,-0.946232 3.327783,-0.481483 0.60634,0.324504 0.607409,0.32358 3.345997,-2.891954 1.301332,-1.527969 4.154467,-4.6117 6.340298,-6.85274 7.143268,-7.323677 11.253208,-10.229283 14.408548,-10.186412 1.71195,0.02326 2.30111,0.290909 3.91505,1.778584 1.93912,1.787419 3.16633,4.868304 4.55326,11.430862 2.00241,9.474851 2.41582,20.533722 0.97895,26.186997 -0.36987,1.455208 -1.11456,3.770484 -1.65487,5.145058 -0.54032,1.374571 -0.87377,2.536936 -0.741,2.583032 1.23342,0.428225 3.5769,2.053388 4.27628,2.965526 0.70163,0.915062 0.8599,1.361043 0.8599,2.423065 0,1.113769 -0.13249,1.448239 -0.91817,2.317879 -0.54127,0.59913 -1.68163,1.3682 -2.77812,1.87361 -1.02298,0.47152 -1.85996,0.91047 -1.85996,0.97544 0,0.065 0.3998,0.91884 0.88845,1.89747 2.31712,4.64054 2.92467,7.38191 1.88967,8.52649 -0.63476,0.70198 -2.0605,1.45341 -3.24114,1.70825 -0.47295,0.10208 -0.8599,0.30412 -0.8599,0.44897 0,0.40206 2.17387,3.67504 4.6732,7.03601 4.47602,6.01909 5.94378,8.65568 7.21763,12.96534 l 0.56699,1.91823 h 22.48173 22.48171 l -0.0695,9.43774 -0.0695,9.43774 -2.6388,0.75409 c -3.83831,1.09686 -6.9294,1.42103 -9.90782,1.03906 -3.3926,-0.43508 -5.8403,-1.27812 -10.83077,-3.73033 -7.22225,-3.54886 -10.6511,-4.50288 -16.18377,-4.50288 -3.08388,0 -5.6771,0.35667 -8.9476,1.23067 -1.80466,0.48227 -2.24289,0.90612 -2.55741,2.47349 -0.10221,0.50933 -0.63562,1.89481 -1.18537,3.07885 -1.16984,2.51959 -2.71742,4.17673 -4.33347,4.64025 -0.60178,0.17261 -1.13796,0.34609 -1.19151,0.38552 -0.13987,0.103 0.83397,2.7433 1.01183,2.7433 0.0817,0 1.75479,-0.80755 3.71805,-1.79456 4.84096,-2.43374 7.43987,-3.10201 12.03623,-3.09494 4.88326,0.008 7.81464,0.78604 13.29641,3.5313 3.21778,1.61145 6.96334,3.01159 9.72233,3.63431 4.10501,0.92653 11.14676,0.52342 16.42529,-0.94027 l 1.69867,-0.47103 v 7.34382 7.34382 l -2.18226,0.58883 c -5.03717,1.35918 -8.71984,1.61379 -12.91851,0.89317 -3.49568,-0.59998 -6.22392,-1.61403 -12.01902,-4.46734 -2.76489,-1.36134 -6.01629,-2.78157 -7.22531,-3.15607 -5.19631,-1.60956 -9.87003,-1.44971 -15.99188,0.54696 -2.3136,0.7546 -2.32721,0.78119 -1.54309,3.01575 0.77945,2.22127 1.54192,5.44389 1.87583,7.92833 0.42169,3.13761 0.29339,2.98439 1.90435,2.27419 2.17467,-0.95872 4.9433,-1.48044 7.85629,-1.48044 4.89425,0 7.25809,0.76567 14.04623,4.54971 7.33358,4.08808 10.31708,4.92046 16.54008,4.61459 3.06542,-0.15067 7.69247,-0.96198 9.19427,-1.61213 0.43131,-0.18672 0.46302,0.12777 0.46302,4.59163 v 4.79208 l -26.52448,-0.0674 -26.52447,-0.0674 -0.58595,-1.71979 c -0.82696,-2.42719 -0.79936,-2.64583 0.334,-2.64583 1.77626,0 2.75529,-1.83697 3.33958,-6.26613 0.24382,-1.84824 0.2027,-2.74836 -0.281,-6.15093 -0.33322,-2.34409 -0.95942,-5.26664 -1.52026,-7.09533 -0.52451,-1.71022 -1.04127,-3.47663 -1.14837,-3.92536 -0.28694,-1.20232 -2.64408,-6.87644 -4.41137,-10.61905 -0.3586,-0.75942 -0.71927,-1.79528 -0.80148,-2.30192 -0.13773,-0.84868 -0.0897,-0.93367 0.6106,-1.08037 2.13612,-0.44747 3.49683,-1.75696 4.85279,-4.6701 1.39795,-3.00334 1.71639,-4.53661 1.72251,-8.29393 0.003,-1.89177 -0.0847,-4.1242 -0.19514,-4.96094 l -0.20074,-1.52135 h 1.81526 c 2.27111,0 3.42359,-0.66339 3.99339,-2.29865 0.34759,-0.99753 0.3305,-1.27601 -0.19986,-3.25756 -1.14713,-4.28598 -2.71235,-7.13953 -7.35345,-13.40604 -2.67594,-3.61313 -4.86522,-6.95418 -4.86527,-7.4249 -2e-5,-0.17913 0.32739,-0.39575 0.72757,-0.48137 1.53126,-0.32764 2.92006,-0.95078 3.50378,-1.57212 0.92379,-0.98333 0.6279,-2.80136 -1.05957,-6.51016 -1.96881,-4.32715 -1.98838,-4.00362 0.30698,-5.07203 2.08162,-0.96893 3.31529,-2.01169 3.56714,-3.01514 0.46747,-1.862539 -0.89184,-3.86472 -3.4933,-5.145412 -0.94611,-0.465767 -1.77181,-0.930365 -1.83489,-1.032438 -0.0631,-0.102074 0.30626,-1.218131 0.82077,-2.480128 1.21458,-2.979139 2.16733,-6.773991 2.53179,-10.084262 0.56962,-5.173747 -0.28757,-14.784331 -2.0059,-22.489582 -1.11956,-5.020262 -2.22165,-7.903617 -3.63446,-9.508649 -2.77553,-3.153179 -5.76288,-3.006089 -10.542444,0.519086 -2.392439,1.764546 -9.154808,8.468786 -13.419111,13.30376 -3.486724,3.953336 -3.591395,4.044881 -4.402825,3.850627 -2.142593,-0.512929 -3.619965,0.245041 -5.461396,2.801988 -4.385855,6.090044 -4.220472,5.899435 -4.978376,5.737743 -5.931551,-1.265444 -6.897079,-1.350335 -15.39454,-1.353526 -7.613245,-0.0029 -8.586197,0.0484 -11.244791,0.59246 -1.600729,0.327575 -3.164176,0.664723 -3.474323,0.749218 -0.702792,0.19146 -1.218216,-0.334203 -3.311771,-3.37756 -2.270871,-3.301116 -3.502448,-4.610364 -4.804669,-5.107688 -0.871119,-0.332682 -1.298273,-0.36758 -1.864453,-0.152318 -0.403942,0.153577 -0.896299,0.279233 -1.094126,0.279233 -0.197829,0 -1.847397,-1.69664 -3.665709,-3.770312 C 23.853581,61.269818 20.719208,57.894333 18.706617,55.84241 9.5894043,46.547018 4.9101372,44.834667 1.3821064,49.502602 c -1.09742808,1.452009 -1.74490844,3.064253 -2.7161435,6.763284 -1.7771903,6.768563 -2.8010431,14.293005 -2.8005272,20.581474 5.292e-4,5.904235 0.6731741,9.703342 2.5362243,14.32363 0.4966494,1.231665 0.90299641,2.376742 0.90299641,2.544615 0,0.167872 -0.89127011,0.745712 -1.98059661,1.284086 -1.5995994,0.790567 -2.1085677,1.197229 -2.6458332,2.114005 -1.541735,2.63077 -0.3419343,4.640964 3.6565838,6.126384 1.53149819,0.56894 1.54046228,0.43157 -0.2927932,4.48726 -1.6675046,3.689 -2.0915338,5.37721 -1.6040337,6.38618 0.4382663,0.90708 1.6643878,1.64147 3.1695679,1.89842 0.75042444,0.12811 1.17678723,0.34678 1.23165652,0.6317 0.10478293,0.54409 -2.06629782,4.07802 -4.44757942,7.23945 -4.5372203,6.02369 -6.3311402,9.33558 -7.4281395,13.71366 -0.470948,1.87953 -0.494649,2.27503 -0.1914,3.19383 0.515147,1.56082 1.7064436,2.25864 3.8559052,2.25864 h 1.7117509 l -0.2295234,2.05052 c -0.3778541,3.37569 -0.2504757,7.92205 0.2761377,9.85572 1.0367883,3.807 3.1673666,6.83573 5.24692273,7.45879 0.57715411,0.17291 1.11214159,0.47797 1.18886017,0.67789 0.2253403,0.58723 -0.69089849,3.56253 -1.70134219,5.52477 -1.27774431,2.48133 -3.58974481,8.21375 -4.41426051,10.9448 -1.3094546,4.33733 -1.548458,5.97315 -1.5849387,10.84792 -0.031665,4.231 0.019553,4.78989 0.594016,6.48229 0.7417858,2.18533 1.4306099,3.04271 2.4445461,3.04271 0.4026059,0 0.7850849,0.0893 0.8499501,0.19844 0.064863,0.10914 -0.1364694,1.0914 -0.4474077,2.18281 l -0.5653405,1.98437 -26.6567699,0.0674 -26.656769,0.0674 z"
         id="path348" /><path
         style="fill:#1a110f;stroke-width:0.264583"
         d="m -19.163823,258.74117 c -0.874088,-0.0609 -1.455608,-0.23513 -1.542812,-0.46237 -0.203485,-0.53028 1.06135,-4.48784 2.284405,-7.14772 1.609984,-3.50137 3.779509,-6.61665 6.452115,-9.26476 1.326177,-1.31402 2.7290635,-2.62441 3.1175301,-2.91197 l 0.7062972,-0.52285 0.1592553,-5.42396 c 0.2385113,-8.12326 1.1271171,-15.29707 2.9376104,-23.71566 0.6607678,-3.07249 0.8639731,-4.4793 0.6569737,-4.5483 -0.1966728,-0.0656 -0.1628061,-0.2044 0.098526,-0.4039 0.429305,-0.32774 1.5365888,-3.9976 1.2827555,-4.25143 -0.084492,-0.0845 -0.4702095,-0.15362 -0.8571521,-0.15362 -0.9827524,0 -1.6822895,-0.88097 -2.4160637,-3.04271 -0.574466,-1.6924 -0.6256814,-2.25129 -0.594016,-6.48229 0.036481,-4.87477 0.2754841,-6.51059 1.5849387,-10.84792 0.8245157,-2.73105 3.1365162,-8.46347 4.41426051,-10.9448 1.0104437,-1.96224 1.92668249,-4.93754 1.70134219,-5.52477 -0.0767186,-0.19992 -0.61170606,-0.50498 -1.18886017,-0.67789 -2.07955613,-0.62306 -4.21013443,-3.65179 -5.24692273,-7.45879 -0.5266134,-1.93367 -0.6539918,-6.48003 -0.2761377,-9.85572 l 0.2295234,-2.05052 h -1.7117509 c -2.1494616,0 -3.3407587,-0.69782 -3.8559057,-2.25864 -0.303249,-0.9188 -0.279548,-1.3143 0.1914,-3.19383 1.0969998,-4.37808 2.8909197,-7.68997 7.42814,-13.71366 2.3812816,-3.16143 4.55236235,-6.69536 4.44757942,-7.23945 -0.0548693,-0.28492 -0.48123208,-0.50359 -1.23165652,-0.6317 -1.5051801,-0.25695 -2.7313016,-0.99134 -3.1695679,-1.89842 -0.4875001,-1.00897 -0.063471,-2.69718 1.6040337,-6.38618 1.83325548,-4.05569 1.82429139,-3.91832 0.2927932,-4.48726 -3.9985181,-1.48542 -5.1983188,-3.495614 -3.6565838,-6.126384 0.5372655,-0.916776 1.0462338,-1.323438 2.6458332,-2.114005 1.0893265,-0.538374 1.98059661,-1.116214 1.98059661,-1.284086 0,-0.167873 -0.40634701,-1.31295 -0.90299641,-2.544615 -1.8630502,-4.620288 -2.5357427,-8.419395 -2.5362243,-14.32363 -5.291e-4,-6.288469 1.0233369,-13.812911 2.8005272,-20.581474 0.97123506,-3.699031 1.61871542,-5.311275 2.7161435,-6.763284 3.5280308,-4.667935 8.2072979,-2.955584 17.3245101,6.339808 2.012591,2.051923 5.146964,5.427408 6.965278,7.50108 1.818312,2.073672 3.46788,3.770312 3.665709,3.770312 0.197827,0 0.690184,-0.125656 1.094126,-0.279233 0.56618,-0.215262 0.993334,-0.180364 1.864453,0.152318 1.302221,0.497324 2.533798,1.806572 4.804669,5.107688 2.093555,3.043357 2.608979,3.56902 3.311771,3.37756 0.310147,-0.08449 1.873594,-0.421643 3.474323,-0.749218 2.658594,-0.54406 3.631546,-0.595323 11.244791,-0.59246 8.497461,0.0032 9.462989,0.08808 15.39454,1.353526 0.757904,0.161692 0.592521,0.352301 4.978376,-5.737743 1.841431,-2.556947 3.318803,-3.314917 5.461396,-2.801988 0.81143,0.194254 0.916101,0.102709 4.402825,-3.850627 4.264303,-4.834974 11.026672,-11.539214 13.419111,-13.30376 4.779565,-3.525175 7.766915,-3.672265 10.542445,-0.519086 1.41281,1.605032 2.5149,4.488387 3.63446,9.508649 1.71833,7.705251 2.57552,17.315835 2.0059,22.489582 -0.36446,3.310271 -1.31721,7.105123 -2.53179,10.084262 -0.51451,1.261997 -0.88386,2.378054 -0.82077,2.480128 0.0631,0.102073 0.88878,0.566671 1.83489,1.032438 2.60146,1.280692 3.96077,3.282873 3.4933,5.145412 -0.25185,1.00345 -1.48552,2.04621 -3.56714,3.01514 -2.29536,1.06841 -2.27579,0.74488 -0.30698,5.07203 1.68747,3.7088 1.98336,5.52683 1.05957,6.51016 -0.58372,0.62134 -1.97252,1.24448 -3.50378,1.57212 -0.40018,0.0856 -0.72759,0.30224 -0.72757,0.48137 5e-5,0.47072 2.18933,3.81177 4.86527,7.4249 4.6411,6.26651 6.20632,9.12006 7.35345,13.40604 0.53036,1.98155 0.54745,2.26003 0.19986,3.25756 -0.5698,1.63526 -1.72228,2.29865 -3.99339,2.29865 h -1.81526 l 0.20074,1.52135 c 0.11042,0.83674 0.19823,3.06917 0.19514,4.96094 -0.006,3.75732 -0.32456,5.29059 -1.72251,8.29393 -1.35596,2.91314 -2.71667,4.22263 -4.85279,4.6701 -0.70029,0.1467 -0.74833,0.23169 -0.6106,1.08037 0.0822,0.50664 0.44288,1.5425 0.80148,2.30192 1.76729,3.74261 4.12443,9.41673 4.41137,10.61905 0.1071,0.44873 0.62386,2.21514 1.14837,3.92536 0.56084,1.82869 1.18704,4.75124 1.52026,7.09533 0.4837,3.40257 0.52482,4.30269 0.281,6.15093 -0.58429,4.42916 -1.56332,6.26613 -3.33958,6.26613 -0.62648,0 -0.93868,0.12273 -0.93868,0.369 0,0.86262 1.12189,3.90533 1.49236,4.04749 0.28735,0.11027 0.31484,0.21023 0.0952,0.34599 -0.2268,0.14018 -0.0577,1.34366 0.63605,4.52725 1.1677,5.35837 1.87306,9.7575 2.39225,14.91964 0.59874,5.95322 0.63603,6.56719 0.6455,10.62934 l 0.009,3.75017 1.26758,0.8716 c 4.33929,2.98378 8.61794,9.2674 10.92486,16.04425 0.74739,2.19556 0.85716,2.76318 0.56897,2.94231 -0.50537,0.31414 -4.83432,0.63288 -5.07032,0.37334 -0.10761,-0.11835 -0.46262,-1.04861 -0.78891,-2.06726 -0.9212,-2.87594 -3.28719,-7.46982 -4.97379,-9.65729 -0.8415,-1.09141 -1.64455,-1.98437 -1.78454,-1.98437 -0.13999,0 -0.28422,0.41671 -0.32051,0.92604 -0.18261,2.56311 -0.95488,8.59518 -1.35495,10.58333 l -0.45256,2.24896 -2.70127,0.0754 c -1.4857,0.0415 -2.70128,-0.0202 -2.70128,-0.13712 0,-0.11688 0.29404,-1.51382 0.65342,-3.1043 1.38187,-6.11556 1.5801,-8.20214 1.58446,-16.67773 0.004,-8.40445 -0.26649,-12.46018 -1.33007,-19.91983 -1.02725,-7.20481 -3.04907,-16.1599 -3.69726,-16.37596 -0.1479,-0.0493 -0.62061,0.65568 -1.05047,1.56662 -2.17735,4.61418 -7.713191,10.9787 -12.122382,13.937 -3.41544,2.29156 -4.662408,2.61774 -5.71681,1.49538 l -0.604689,-0.64366 -2.798019,2.77775 c -3.03748,3.01547 -5.905238,5.29446 -8.761056,6.96235 -2.467061,1.44084 -4.948465,2.49105 -5.440064,2.30241 -0.91314,-0.35041 -0.349816,-1.19272 2.215118,-3.31217 3.5652,-2.946 8.776184,-8.39236 10.93112,-11.42487 0.977257,-1.37524 2.502479,-3.89942 3.389379,-5.60929 1.664726,-3.20945 2.10304,-3.60701 2.994223,-2.71583 0.529153,0.52915 0.967689,2.69506 0.967689,4.77937 0,1.53935 0.05274,1.70677 0.537642,1.70677 0.727416,0 4.224702,-3.52277 6.388957,-6.43552 3.707692,-4.98998 5.792832,-9.3253 7.279442,-15.13505 0.69447,-2.71403 0.78822,-2.90864 1.4375,-2.98392 0.50103,-0.0581 1.18833,0.29318 2.46646,1.2606 0.97454,0.73762 1.89862,1.26281 2.05352,1.16708 0.18479,-0.11421 0.22413,-0.92214 0.1144,-2.34962 -0.3612,-4.69909 -1.53924,-9.02115 -4.14599,-15.21107 -0.76604,-1.81901 -1.77909,-4.37885 -2.25122,-5.68854 -0.47214,-1.30969 -1.02045,-2.41405 -1.21848,-2.45415 -0.20972,-0.0425 -0.63605,0.50946 -1.02104,1.32179 -1.44178,3.0422 -5.221775,7.52737 -8.184624,9.71152 -3.604077,2.65684 -5.619554,3.28207 -5.790168,1.79618 -0.06962,-0.60633 0.263853,-1.10761 1.879016,-2.82454 3.418879,-3.63429 7.309931,-9.43989 9.050646,-13.50392 1.32881,-3.10235 1.74747,-5.0859 1.91107,-9.05421 0.12726,-3.08695 0.22346,-3.69705 0.64282,-4.07656 0.41951,-0.37966 0.64481,-0.40088 1.50857,-0.14209 1.22909,0.36825 3.56363,2.72822 4.68869,4.73978 0.42721,0.76383 0.85331,1.38891 0.94688,1.38906 0.76201,0.001 0.99525,-7.73008 0.37115,-12.30286 -0.23833,-1.74625 -0.50317,-4.07992 -0.58854,-5.18593 -0.14311,-1.85403 -0.11057,-2.04222 0.41701,-2.41175 0.58597,-0.41043 1.63983,-0.32613 3.97154,0.31769 0.56172,0.1551 1.03053,0.16192 1.17534,0.0171 0.35126,-0.35127 -2.42872,-5.20531 -4.85652,-8.47983 -3.39342,-4.57693 -5.65106,-8.25308 -7.26508,-11.82986 -4.521608,-10.02016 -6.91495,-14.31496 -11.395674,-20.449309 -0.903491,-1.236927 -1.722815,-2.50811 -1.820722,-2.82485 -0.231521,-0.749015 0.355606,-2.125554 1.427134,-3.345955 0.469839,-0.53512 0.812157,-0.977853 0.7607,-0.983854 -0.05145,-0.006 -1.227592,-0.03765 -2.613641,-0.07033 -2.19947,-0.05187 -2.721223,-0.15988 -4.101041,-0.848989 -1.88504,-0.941425 -2.538188,-1.8298 -3.147888,-4.281572 -0.246145,-0.989809 -0.863682,-2.646693 -1.372307,-3.681963 -0.96325,-1.960629 -3.223876,-4.996857 -3.720414,-4.996857 -0.157581,0 -1.030362,1.11207 -1.939512,2.471266 -1.673532,2.501953 -2.782165,3.479073 -3.949377,3.480869 -0.353264,5.29e-4 -2.436858,-0.383511 -4.630209,-0.853456 l -3.987913,-0.854443 -8.334375,-0.0052 -8.334374,-0.0052 -4.049824,0.859623 c -4.778361,1.014264 -5.056912,1.028435 -5.977715,0.304131 -0.706786,-0.555956 -3.500474,-4.172852 -3.774321,-4.886489 -0.668832,-1.742945 -3.889716,2.820617 -5.428135,7.69094 -1.037966,3.285997 -1.449322,3.888409 -3.260159,4.774369 -1.190241,0.582329 -1.930664,0.730887 -4.226949,0.848082 -1.531165,0.07816 -2.783937,0.198538 -2.783937,0.26752 0,0.06898 0.461496,0.586917 1.025546,1.150969 0.564052,0.564049 1.174887,1.386086 1.357415,1.826747 0.375902,0.907505 0.417941,0.82727 -3.077424,5.873395 -3.599381,5.196296 -6.9552609,11.255596 -9.087305,16.407836 -1.9012508,4.59452 -3.9639397,8.05591 -8.66939533,14.5481 -2.00543577,2.76694 -4.71857627,7.75657 -4.34366437,7.98828 0.1261586,0.078 1.0501233,-0.0956 2.0532512,-0.38579 3.51026399,-1.01534 3.86976922,-0.38563 2.98695522,5.23187 -0.90957922,5.78781 -0.81335292,14.49364 0.16019991,14.49364 0.12478543,0 0.59247085,-0.6222 1.03929917,-1.38266 1.3954018,-2.37483 4.0345649,-4.83129 5.1936145,-4.83407 0.2268484,-5.2e-4 0.6435671,0.16785 0.9260416,0.37422 0.4458811,0.32573 0.5344345,0.8228 0.6716924,3.7703 0.097734,2.09875 0.3812698,4.30435 0.7425663,5.77637 1.1925193,4.85863 5.7290154,12.43259 10.2430394,17.10139 2.067208,2.13809 2.455413,3.11641 1.450107,3.65443 -0.689488,0.369 -1.844884,-0.0559 -4.122219,-1.51607 -3.533269,-2.2654 -7.6503553,-6.85392 -9.4881643,-10.57464 -0.4492387,-0.90952 -0.9404667,-1.65365 -1.0916205,-1.65365 -0.1511512,0 -0.5530426,0.80367 -0.8930957,1.78594 -0.3400504,0.98226 -1.3392811,3.51234 -2.2205129,5.62239 -2.96120328,7.09041 -4.0092284,10.84545 -4.5607841,16.34115 -0.2197338,2.18941 0.1252802,2.30357 2.24529906,0.7429 1.83193254,-1.34859 2.78738004,-1.53426 3.15829404,-0.61373 0.1319292,0.32741 0.6659536,2.14312 1.1867171,4.03488 1.3098382,4.75821 3.599238,9.30696 6.8769973,13.66372 2.576406,3.42453 5.79293,6.64661 6.501733,6.51297 0.311279,-0.0587 0.410885,-0.58065 0.461833,-2.42016 0.102423,-3.69806 0.675439,-5.02927 1.948288,-4.52621 0.202404,0.08 1.079524,1.51982 1.949162,3.19958 2.865956,5.53585 7.51174,11.05329 13.841705,16.43876 2.148795,1.82817 3.227946,2.92075 3.168679,3.20809 -0.153173,0.74262 -1.555655,0.44851 -4.178183,-0.8762 -4.35559,-2.2001 -7.152489,-4.32486 -11.409727,-8.66775 -0.967375,-0.98684 -1.835402,-1.79426 -1.928942,-1.79426 -0.09354,0 -0.51258,0.25323 -0.931199,0.56273 -1.016148,0.75126 -1.992418,0.54995 -4.516202,-0.9313 -5.070948,-2.9762 -10.5685718,-9.13363 -13.1361439,-14.71268 -0.6886866,-1.49644 -0.9697667,-1.88418 -1.1431217,-1.57687 -0.363429,0.64422 -1.82260601,6.63305 -2.50593741,10.28499 -1.59193959,8.50781 -2.30713749,16.47414 -2.30618229,25.68771 7.937e-4,7.7563 0.3472709,11.40456 1.6032691,16.88222 0.40669893,1.77371 0.67965367,3.28472 0.60656517,3.35781 -0.0730911,0.0731 -1.29380447,0.13289 -2.71270137,0.13289 h -2.5798117 l -0.284988,-1.32885 c -0.3378649,-1.57541 -1.2689654,-8.37207 -1.4943454,-10.90813 -0.087294,-0.98226 -0.2594266,-1.78594 -0.3825161,-1.78594 -0.4664445,0 -3.5251014,4.41603 -4.7518784,6.86066 -0.70353,1.40195 -1.602772,3.58698 -1.998316,4.85563 l -0.719169,2.30663 -1.093298,-0.0489 c -0.601314,-0.0269 -1.724581,-0.0929 -2.496151,-0.1466 z M 3.6736097,109.64557 c 1.1662277,-2.16316 2.6628617,-4.48026 5.7492473,-8.90103 1.56551,-2.242353 2.846382,-4.263193 2.846382,-4.490753 0,-0.22756 -0.479364,-1.335143 -1.065255,-2.4613 C 9.9234116,91.331066 8.4648458,87.382689 7.7017055,84.311718 6.8897892,81.044471 6.919113,76.025823 7.7681768,72.934635 c 0.9996143,-3.63928 2.9445822,-5.069932 5.2418052,-3.855688 1.583455,0.836967 7.968604,8.125502 9.193535,10.494256 0.490223,0.947989 0.848011,0.976826 1.183143,0.09536 0.637423,-1.676548 1.710153,-3.685529 2.568157,-4.809575 0.819457,-1.073546 0.893572,-1.291084 0.600022,-1.761135 -1.108943,-1.775698 -8.926994,-10.7175 -12.414014,-14.19838 -4.2650066,-4.257492 -7.1488828,-6.451247 -8.2715336,-6.292132 -1.2493228,0.177067 -2.5153725,4.08855 -3.7620679,11.622955 -2.35547684,14.235336 -1.29804578,22.79013 3.6983933,29.920582 0.8179302,1.167272 1.3864615,2.215787 1.2634038,2.330029 -0.123055,0.114244 -1.3505496,0.527986 -2.727764,0.919427 -2.6254974,0.746239 -3.44910026,1.08477 -3.44910026,1.417719 0,0.11012 0.70463566,0.523653 1.56585696,0.918962 1.9274419,0.884715 2.9320595,2.001685 2.9320595,3.259955 0,0.53955 -0.5559187,2.13898 -1.3493802,3.8823 -0.7421615,1.63061 -1.4108853,3.23263 -1.4860534,3.56005 -0.2419879,1.05405 0.3486414,0.63509 1.1189705,-0.79375 z m 104.9039603,1.12678 c 0,-0.14425 -0.66704,-1.6985 -1.4823,-3.45387 -0.81527,-1.75537 -1.54211,-3.63746 -1.6152,-4.18242 -0.18301,-1.36442 0.74108,-2.41087 2.96282,-3.355126 0.9472,-0.402564 1.72218,-0.824582 1.72218,-0.937816 0,-0.255249 -2.31496,-1.122135 -4.14564,-1.552419 -1.71623,-0.403386 -2.43737,-0.897662 -2.07207,-1.420217 0.14552,-0.208163 0.77063,-1.101616 1.38913,-1.985454 2.71725,-3.882943 4.07788,-7.941958 4.61338,-13.762524 0.52723,-5.730652 -0.50446,-15.385261 -2.43155,-22.754565 -0.89365,-3.417398 -1.4848,-4.635891 -2.30727,-4.755814 -1.39388,-0.203237 -5.06963,2.560251 -9.467731,7.117974 -3.311557,3.431749 -11.507417,13.158091 -11.507417,13.656294 0,0.181213 0.533107,1.12437 1.18468,2.095905 0.651576,0.971534 1.454642,2.462633 1.784591,3.313548 0.329951,0.850916 0.67742,1.547122 0.772157,1.547122 0.09473,0 0.953749,-1.101328 1.908921,-2.447395 2.20458,-3.106788 5.89589,-7.285315 7.288225,-8.250206 1.349807,-0.935416 3.180204,-1.191921 4.118464,-0.577146 1.59698,1.046379 2.60209,4.640276 2.59826,9.290372 -0.004,4.917546 -1.18482,9.302313 -4.086025,15.173446 l -1.352989,2.73803 1.618634,2.289053 c 3.09156,4.372028 6.59873,9.705178 7.29066,11.086448 0.63045,1.25854 1.21609,1.80117 1.21609,1.12678 z M 1.9404963,257.84127 c -1.81494368,-6.74019 -2.9689318,-16.90839 -2.15777222,-19.01289 0.54850239,-1.42305 2.03921242,-2.13942 2.90330452,-1.39519 0.4536175,0.39069 0.6843289,1.37618 1.3796168,5.8931 0.6772725,4.39988 1.6437953,9.50271 2.8440008,15.01511 0.1269709,0.58316 0.08059,0.59531 -2.2722812,0.59531 H 2.2354697 Z m 30.0796177,0.89463 c -0.06826,-0.11044 -0.271232,-1.20702 -0.451056,-2.43683 -0.36721,-2.51136 -0.161534,-9.72731 0.290131,-10.17898 0.582867,-0.58286 1.19516,0.381 2.191118,3.44924 1.198213,3.69134 2.546527,8.88448 2.380562,9.16894 -0.15195,0.26044 -4.249695,0.25824 -4.410755,-0.002 z m 42.364745,0.0512 c -0.172077,-0.17208 1.261872,-5.83916 2.493407,-9.85412 1.195853,-3.89864 2.036924,-4.17107 2.578169,-0.83507 0.359897,2.21824 0.35452,4.65356 -0.0164,7.42333 -0.470734,3.5152 -0.388237,3.41551 -2.826409,3.41551 -1.143516,0 -2.146464,-0.0673 -2.228773,-0.14965 z m 29.537101,-0.44566 c 0.0927,-0.32742 0.57184,-2.61938 1.06468,-5.09323 0.79159,-3.9735 1.22661,-6.51011 2.30768,-13.45636 0.43749,-2.81106 1.49029,-3.44749 3.11098,-1.88063 0.85127,0.82298 1.11955,2.91001 0.81691,6.35474 -0.36203,4.12063 -1.35455,9.804 -2.37196,13.58237 l -0.29308,1.08842 h -2.40191 c -2.36444,0 -2.39928,-0.009 -2.2333,-0.59531 z M 53.411945,171.17507 c -5.419068,-0.71874 -10.500047,-4.66537 -13.154468,-10.21768 -0.614019,-1.28435 -1.129504,-1.96768 -1.791317,-2.37459 -2.661335,-1.6363 -5.680747,-5.40121 -7.808229,-9.73608 -1.662811,-3.38808 -1.887302,-4.91243 -0.906989,-6.1587 1.323541,-1.68261 4.736827,-0.19147 4.746836,2.07371 0.0053,1.19 1.370589,4.89415 2.299787,6.23935 1.251789,1.8122 2.970829,3.37746 4.574061,4.16485 2.021835,0.99299 5.051608,1.1333 7.184446,0.33272 2.691981,-1.01046 5.186036,-3.80002 5.322561,-5.9532 0.06241,-0.98434 0.06068,-0.98604 -1.62974,-1.6048 -2.177685,-0.79712 -3.559442,-1.79945 -5.114586,-3.71015 -1.602566,-1.96897 -2.145557,-3.57659 -2.011193,-5.95449 0.207576,-3.67358 2.390118,-5.35185 7.584381,-5.83203 3.152224,-0.2914 7.419038,-0.0231 9.359312,0.58859 3.530425,1.11296 5.05397,5.23763 3.326082,9.00465 -1.258924,2.74462 -4.039142,5.21084 -6.792314,6.02517 -1.372685,0.40602 -1.490776,0.50369 -1.568286,1.29707 -0.198876,2.03567 2.370167,5.07323 5.18985,6.13633 1.235829,0.46594 1.915138,0.54874 3.757514,0.45797 3.429688,-0.16897 5.82771,-1.58704 7.918794,-4.68276 1.076976,-1.5944 2.399956,-4.66125 2.399956,-5.56343 0,-1.68083 1.834194,-3.71669 3.348521,-3.71669 0.909709,0 1.864622,0.78564 2.101353,1.72886 0.2658,1.05903 -0.08769,2.27489 -1.502529,5.16809 -1.954581,3.99691 -5.423686,8.21609 -7.997833,9.72708 -0.483589,0.28386 -1.168667,1.24492 -1.917927,2.69055 -2.738218,5.28318 -7.133627,8.76312 -12.211888,9.66842 -2.027891,0.36151 -3.139197,0.40902 -4.706155,0.20119 z m 5.177499,-5.00004 c 1.847612,-0.54268 2.980574,-1.21836 4.572817,-2.72715 1.256261,-1.19042 2.552809,-2.93952 2.552809,-3.44386 0,-0.1395 -0.565547,-0.32952 -1.256771,-0.42228 -2.177436,-0.2922 -5.339138,-1.17296 -7.137119,-1.9882 -0.953408,-0.4323 -1.899552,-0.78599 -2.102543,-0.78599 -0.202991,0 -0.940943,0.28979 -1.639893,0.64397 -1.722779,0.873 -4.283948,1.66345 -6.509176,2.00893 -1.014454,0.1575 -1.892122,0.33403 -1.950376,0.39228 -0.243824,0.24383 1.332371,2.48643 2.544355,3.6201 1.372979,1.28426 2.918537,2.19159 4.690065,2.75332 1.489906,0.47243 4.53844,0.44744 6.235832,-0.0511 z M 35.113426,124.00974 c -2.774746,-0.65885 -4.849571,-3.43672 -4.849571,-6.49282 0,-1.72118 0.499025,-3.02503 1.62551,-4.24712 3.857739,-4.18515 9.880914,-1.27239 9.880914,4.77833 0,1.64369 -0.10492,2.06125 -0.800745,3.18671 -1.294419,2.09368 -3.774951,3.26907 -5.856108,2.7749 z m 37.791696,-0.19237 c -1.260393,-0.44569 -2.711741,-1.75195 -3.377949,-3.04025 -0.59437,-1.14939 -0.780095,-3.65657 -0.377404,-5.09483 0.641355,-2.2907 3.52248,-4.64056 5.693425,-4.6436 3.533283,-0.005 6.27675,3.39846 5.875258,7.28852 -0.269184,2.60817 -2.015508,4.8797 -4.265019,5.54774 -1.589186,0.47193 -2.073095,0.46408 -3.548311,-0.0576 z"
         id="path346" /></g></g><style
     id="style134">@media (prefers-color-scheme: light) { :root { filter: none; } }
@media (prefers-color-scheme: dark) { :root { filter: none; } }
</style></svg>
