<svg xmlns="http://www.w3.org/2000/svg" xml:space="preserve" id="svg5" width="1024" height="1024" version="1.1" viewBox="0 0 270.933 270.933"><g id="layer1" transform="translate(21.646 -4.438)"><g id="g344" transform="translate(58.689 -7.114)"><path id="path364" d="M-80.335 147.018V11.551h270.933v270.934H-80.335ZM37.164 259.4c.403-.432 35.524-.36 36.358.074.363.19 9.539.25 28.972.195l28.44-.082 2.779-.606c11.784-2.567 21.85-9.414 28.265-19.227 3.928-6.007 6.007-12.294 6.651-20.108.196-2.377.252-25.472.18-74.745-.116-79.105.026-73.146-1.889-79.507-5.026-16.696-20.008-29.002-37.206-30.56-2.354-.212-23.846-.272-76.302-.212-69.622.08-73.142.107-75.539.571-6.446 1.249-13.615 4.381-18.601 8.129-9.234 6.94-14.822 15.974-17.005 27.496-.45 2.373-.482 6.49-.57 73.95-.065 48.232-.005 72.496.181 74.695.5 5.882 1.671 10.456 3.87 15.11 5.81 12.296 17.88 21.662 31.364 24.338 1.51.3 3.163.588 3.672.64.51.052 13.333.114 28.498.137 21.761.033 27.638-.027 27.882-.288zM-50.325 89.723c-.542-2.889 1.086-5.061 4.03-5.377l1.547-.167.157-3.571c.12-2.703.291-3.912.706-4.97 3.036-7.748 11.664-11.009 18.91-7.147 3.23 1.722 6.014 5.556 6.492 8.942l.206 1.455 2.408-.094c2.777-.109 3.743.217 5.255 1.774 1.409 1.45 2.058 3.434 1.922 5.874-.07 1.233-.307 2.398-.622 3.043l-.51 1.044-20.162.068-20.162.068z" style="fill:#f5efe5;stroke-width:.264583"/><path id="path362" d="M-19.216 259.55c-.51-.051-2.162-.34-3.672-.639-13.484-2.676-25.554-12.042-31.364-24.338-2.199-4.654-3.37-9.228-3.87-15.11-.186-2.198-.246-26.463-.182-74.694.09-67.46.121-71.577.57-73.951 2.184-11.522 7.772-20.557 17.006-27.496 4.986-3.748 12.155-6.88 18.601-8.129 2.397-.464 5.917-.49 75.539-.57 52.456-.061 73.948-.001 76.302.212 12.672 1.147 24.335 8.14 31.841 19.092 1.924 2.807 4.264 7.807 5.365 11.467 1.915 6.36 1.773.402 1.889 79.507.072 49.273.016 72.368-.18 74.745-.644 7.815-2.723 14.1-6.65 20.108-6.416 9.813-16.482 16.66-28.266 19.228l-2.778.605-28.441.082c-19.433.056-28.61-.006-28.972-.195-.834-.434-35.955-.506-36.358-.074-.244.26-6.12.322-27.882.288-15.165-.023-27.989-.085-28.498-.137zm56.036-.47c.246-.246-.478-3.45-1.696-7.51-1.254-4.18-1.842-5.55-2.565-5.977-.698-.411-1.504.659-1.504 1.996 0 .566-.09 1.029-.199 1.028-.266 0-1.392-1.833-2.519-4.1-1.855-3.734-3.159-8.155-3.78-12.827-.402-3.012-.511-8.625-.173-8.834.115-.071 1.156.707 2.315 1.73 4.163 3.672 10.816 7.435 12.309 6.961.48-.152.767-.83.583-1.377-.06-.179-1.86-1.855-3.998-3.724-6.237-5.453-10.241-10.288-13.02-15.724-1.63-3.188-2.118-3.728-3.128-3.464-.962.251-1.428 1.557-1.565 4.384-.069 1.42-.21 2.58-.315 2.58-.434 0-3.992-3.725-5.434-5.688-4.143-5.642-6.167-9.88-7.83-16.394-.299-1.17-.667-2.276-.818-2.458-.507-.61-1.714-.346-3.322.728-.871.582-1.657 1.058-1.745 1.058-.187 0-.03-1.504.54-5.16.438-2.803 2.103-7.949 3.853-11.906a91.757 91.757 0 0 0 1.907-4.725l.853-2.344.733 1.418c2.613 5.053 10.362 12.134 13.278 12.134.395 0 .935-.197 1.201-.438.93-.84.602-1.567-1.908-4.232-3.334-3.542-3.716-4.45-3.163-7.52 1.37-7.594 9.455-16.385 15.07-16.385 1.263 0 1.337.043 2.168 1.256 1.165 1.704 3.239 3.873 4.79 5.012.931.684 1.52 1.416 2.163 2.693 5.288 10.5 16.88 13.572 25.541 6.766 2.12-1.665 4.01-4.011 5.275-6.545.82-1.644 1.276-2.227 2.248-2.87.67-.444 1.963-1.645 2.872-2.668 3.675-4.14 3.453-3.968 4.88-3.762 3.587.516 7.954 3.915 11.178 8.698 2.49 3.693 3.453 6.322 3.453 9.415 0 2.36-.147 2.623-3.534 6.282-2.222 2.401-2.495 3.182-1.37 3.919.54.354.808.374 1.582.119 1.288-.425 4.675-2.676 6.29-4.179 1.96-1.827 4.871-5.388 6.045-7.397.628-1.074 1.075-1.604 1.157-1.373a143.57 143.57 0 0 0 2.924 7.52c2.339 5.532 3.61 10.14 3.995 14.486.183 2.06.01 2.49-.672 1.668-.552-.665-2.814-1.999-3.39-1.999-.908 0-1.287.637-1.92 3.227-1.284 5.26-3.095 9.186-6.565 14.236-2.055 2.991-5.742 7.144-6.342 7.144-.13 0-.31-.923-.398-2.051-.21-2.68-.701-4.074-1.59-4.51-1.12-.549-1.616-.047-3.384 3.42-2.848 5.586-7.66 11.315-13.883 16.526-2.804 2.348-3.139 2.762-2.885 3.56.218.687.785.806 1.923.405 3.058-1.079 7.391-3.796 10.773-6.755 1.164-1.018 2.223-1.854 2.354-1.858.435-.012-.043 8.401-.638 11.239-1.012 4.824-3.665 11.743-5.377 14.022-.386.514-.402.506-.56-.264-.396-1.917-.523-2.117-1.342-2.117-1.03 0-1.356.675-2.87 5.953-1.36 4.74-1.932 7.319-1.679 7.572.098.098 12.712.171 28.032.162l27.853-.016 3.307-.673c4.313-.877 6.862-1.72 10.58-3.501 12.014-5.755 20.896-16.69 23.508-28.944 1.14-5.344 1.13-4.668 1.03-80.565-.105-79.881.035-73.127-1.642-79.428-3.692-13.872-15.707-25.787-29.83-29.586-5.63-1.514-2.06-1.45-81.381-1.445-78.268.006-75.427-.04-80.756 1.32-7.685 1.96-15.309 6.449-20.825 12.26-6.622 6.977-10.472 15.45-11.428 25.156-.196 1.986-.284 25.165-.28 74.084.005 77.137-.058 73.613 1.432 79.506.789 3.12 1.513 4.936 3.492 8.753 5.606 10.809 16.467 19.056 29.159 22.143 2.597.631 3.442.699 10.626.847 9.439.194 49.739.12 49.951-.093zm6.764-103.6c-2.843-.577-5.825-3.112-7.256-6.17-.958-2.047-1.643-5.165-1.423-6.48.674-4.03 3.426-8.944 8.843-15.788 6.846-8.65 7.334-10.225 7.944-25.665.422-10.677 1.005-16.944 1.921-20.637l.328-1.323 1.623-.078 1.624-.078.299 1.665c.77 4.286 1.45 12.972 1.744 22.303.277 8.754.897 12.765 2.505 16.2.98 2.097 1.679 3.103 5.496 7.921 4.64 5.858 7.376 10.402 8.417 13.983 1.478 5.084-2.144 12.077-7.156 13.815-2.03.704-4.706.583-6.636-.3-.861-.394-1.904-1.037-2.317-1.429-1.187-1.126-2.074-2.82-1.979-3.781.074-.74.222-.886 1.2-1.173 1.805-.53 3.352-1.585 5.066-3.455 3.265-3.565 3.676-7.873 1.015-10.65-1.803-1.88-3.868-2.423-9.208-2.423-6.33 0-8.77.935-10.372 3.973-.676 1.282-.75 1.653-.645 3.195.27 3.934 3.397 7.825 7.427 9.242.752.264 1.405.66 1.45.88.155.755-1.073 3.08-2.132 4.037-2.03 1.833-5.203 2.737-7.778 2.215zm-94.027-64.693c-.186-.224-.394-.991-.463-1.704-.25-2.612 1.614-4.866 4.346-5.255l1.282-.183.154-3.172c.225-4.669 1.344-7.382 4.199-10.184 5.392-5.293 13.866-5.246 19.218.106 1.822 1.821 2.888 3.69 3.562 6.244l.453 1.72 2.094-.093c2.442-.108 3.474.23 5.052 1.657 1.636 1.478 2.301 3.239 2.306 6.109.003 2.015-.097 2.584-.657 3.704l-.662 1.323-20.273.067c-17.982.06-20.311.022-20.61-.34zm41.13-1.302c.314-.645.552-1.81.62-3.043.137-2.44-.512-4.424-1.921-5.874-1.512-1.557-2.478-1.883-5.255-1.774l-2.408.094-.206-1.455c-.478-3.386-3.261-7.22-6.492-8.942-7.246-3.862-15.874-.601-18.91 7.147-.415 1.058-.586 2.267-.706 4.97l-.157 3.571-1.548.167c-2.943.316-4.57 2.488-4.029 5.377l.177.942 20.162-.068 20.163-.068z" style="fill:#f2e5d4;stroke-width:.264583"/><path id="path360" d="M15.513 172.22a12.678 12.678 0 0 0-1.14-1.919c-1.18-1.582-3.34-5.346-4.066-7.08-1.145-2.737-1.76-5.748-1.93-9.442-.145-3.164-.206-3.475-.798-4.067-.804-.804-2.069-.67-3.425.365l-.922.703.177-1.285c.414-3.005 2.164-9.681 2.765-10.547.1-.145.399-.86.662-1.587 1.2-3.318 4.047-7.926 6.565-10.626 2.262-2.426 3.635-3.265 5.343-3.265 1.72 0 2.223.368 3.73 2.723 1.952 3.049 4.614 5.587 7.272 6.932 2.683 1.359 3.005 1.684 2.809 2.843-.08.475-.293 1.885-.472 3.135l-.327 2.27h-.795c-.573 0-.995.24-1.513.86-.894 1.072-1.125 2.162-.75 3.553.403 1.497 2.53 5.663 3.242 6.352.323.312.47.48.328.37-.486-.37-2.79-.2-4.114.303-6.706 2.548-14.096 14-12.385 19.195.48 1.462.359 1.564-.256.214zm79.846-1.941c-.016-3.074-.994-5.725-3.464-9.389-3.21-4.763-7.593-8.182-11.141-8.693-1.133-.163-1.316-.107-2.25.69-.987.844-.982.831.176-.45 1.546-1.71 3.5-5.819 3.634-7.64.121-1.649-.58-2.97-1.708-3.218-.405-.089-.866-.2-1.025-.248-.16-.047-.363-1.02-.452-2.16-.089-1.141-.298-2.463-.465-2.938-.167-.475-.239-1.031-.16-1.236.079-.205 1.214-.926 2.524-1.602 1.31-.677 2.927-1.71 3.594-2.298 1.396-1.228 3.294-3.618 4.094-5.153.303-.58.91-1.4 1.35-1.822.665-.637 1-.758 1.982-.715 5.555.242 12.622 11.49 15.341 24.416.217 1.032.395 2.124.395 2.428 0 .505-.04.518-.463.147-.684-.599-2.084-1.263-2.663-1.263-.279 0-.803.232-1.164.517-.628.493-.665.682-.813 4.167-.1 2.37-.345 4.378-.696 5.726-.652 2.494-2.386 6.105-4.404 9.169-.815 1.237-1.646 2.546-1.846 2.91-.337.61-.366.507-.376-1.345zm-19.298-26.454c-.082-3.67-3.004-9.123-8.829-16.475-3.817-4.818-4.515-5.824-5.496-7.92-1.608-3.436-2.228-7.447-2.505-16.2-.295-9.332-.974-18.018-1.744-22.304l-.3-1.665-1.623.078-1.623.078-.328 1.323c-.916 3.693-1.5 9.96-1.921 20.637-.32 8.09-.635 11.417-1.348 14.234-.985 3.895-1.936 5.542-6.596 11.43-5.46 6.9-7.844 11.16-8.88 15.876-.096.436-.23.645-.296.463-.24-.653.49-3.131 1.642-5.56 1.553-3.28 3.887-6.793 7.512-11.307 3.504-4.365 4.785-6.424 5.692-9.146 1.046-3.138 1.45-6.124 1.745-12.89.48-11 .802-15.705 1.334-19.506.582-4.16.884-5.42 1.373-5.73.54-.343 3.283-.259 3.58.11.67.828 1.543 9.49 1.914 18.984.51 13.058.907 16.586 2.243 19.917.938 2.338 2.074 4.056 5.718 8.645 3.86 4.861 5.626 7.521 7.266 10.94 1.437 2.997 2 5.067 1.71 6.296-.21.891-.213.888-.24-.308z" style="fill:#df9445;stroke-width:.264583"/><path id="path358" d="M12.865 258.54c-.012-.146-.218-1.155-.457-2.242-1.788-8.127-2.389-14.35-2.377-24.613.009-7.497.071-8.694.625-11.907.339-1.964.656-3.615.705-3.669.049-.054.72.435 1.49 1.085 1.99 1.678 5.03 3.4 6.304 3.571.847.114 1.253.022 1.846-.416l.76-.562 1.092 1.253 1.093 1.252-.138 1.866c-.076 1.026-.223 2.087-.327 2.358-.141.368-.1.438.161.276.237-.146.288-.114.157.097-.275.444.313 5.826.929 8.5.637 2.77 1.668 5.929 2.676 8.202 1.02 2.297 3.158 5.83 3.428 5.662.12-.073.162.022.095.211-.425 1.204-.167 7.34.367 8.746l.226.594h-9.316c-6.02 0-9.325-.093-9.34-.264zm66.605-.132c.394-.748.848-5.159.756-7.343-.05-1.201-.023-2.183.06-2.183.57.002 4.371-8.23 4.873-10.552.113-.525.271-.768.383-.588.104.17.186-.083.182-.56-.005-.477.187-1.76.426-2.852.621-2.842 1.026-6.889.973-9.719l-.047-2.443.993-1.212.992-1.21.62.58c.502.473.836.558 1.776.452 1.335-.15 4.14-1.702 6.386-3.532.829-.675 1.557-1.177 1.618-1.116.197.197.92 4.228 1.317 7.353.95 7.469.17 20.936-1.787 30.823-.432 2.183-.793 4.088-.803 4.234-.011.171-3.357.264-9.472.264-8.32 0-9.43-.047-9.246-.396z" style="fill:#d98437;stroke-width:.264583"/><path id="path356" d="M52.334 165.59c-1.972-.698-3.575-1.714-4.795-3.037-1.013-1.099-1.833-2.306-1.568-2.306.065 0 1.037-.176 2.16-.39 2.156-.413 4.193-1.099 5.999-2.02 1.05-.535 1.126-.54 2.037-.105 1.94.926 4.303 1.704 6.496 2.139 1.242.247 2.258.534 2.258.639 0 .104-.723.979-1.607 1.944-2.218 2.42-4.24 3.385-7.37 3.516-1.7.072-2.604-.024-3.61-.38zm57.865-11.481c-.343-.596-1.104-1.604-1.692-2.242-.588-.638-.863-1.08-.613-.984.4.153.435.048.28-.853-.378-2.209-1.19-5.88-1.706-7.71-.628-2.233-3.43-8.74-4.382-10.18-.358-.542-.652-1.06-.652-1.152 0-.38-3.509-4.62-4.736-5.724-1.657-1.49-2.955-2.12-4.664-2.266-1.293-.11-1.358-.08-2.38 1.064-.58.647-1.47 1.873-1.979 2.725-1.597 2.672-4.004 4.849-6.94 6.276-2.712 1.319-3.222 1.915-2.612 3.056.155.29.43 1.605.609 2.923.307 2.254.365 2.402.997 2.5.508.08.444.115-.261.145-.6.025-1.27.318-1.877.818l-.944.778-.315-1.374c-.427-1.863-1.944-5.1-3.774-8.054-1.387-2.238-2.933-4.307-7.365-9.856-1.963-2.458-3.557-5.573-4.236-8.28-.704-2.804-.993-6.101-1.326-15.135-.38-10.33-1.295-19.918-2.011-21.076-.371-.6 6.595-.076 10.933.824 3.935.816 4.052.825 4.996.376.942-.447 2.676-2.518 3.903-4.662.311-.545.653-.992.758-.993.377-.004 2.384 2.781 3.265 4.531.493.979 1.125 2.603 1.403 3.609.28 1.006.698 2.199.932 2.65.947 1.832 3.486 2.967 6.635 2.967h1.957l-.908 1.35c-1.35 2.004-1.254 2.606.88 5.564 4.278 5.928 6.919 10.517 10.13 17.605 3.194 7.046 4.049 8.488 9.467 15.962 2.054 2.833 4.295 7.043 3.609 6.78-.26-.1-1.301-.324-2.312-.497l-1.838-.315-.664.771c-.754.876-.766.427.205 7.813.584 4.448.63 9.955.091 10.918-.199.356-.348.243-.863-.652zM77.235 124.03c1.346-.611 3.108-2.59 3.515-3.95.49-1.638.38-4.238-.24-5.607-1.105-2.442-2.973-3.708-5.458-3.698-1.955.007-3.343.64-4.738 2.16-1.344 1.463-1.808 2.75-1.794 4.978.03 4.695 4.672 7.954 8.715 6.117zM-.261 153.963c-.298-1.803-.165-7.825.236-10.65.217-1.527.468-3.684.559-4.792.149-1.827.111-2.069-.4-2.58-.672-.672-1.565-.71-3.453-.15-.769.228-1.442.37-1.496.317-.238-.239 2.925-5.474 5.49-9.086 3.9-5.492 5.041-7.465 7.511-12.977 3.406-7.6 5.794-11.821 10.04-17.746 2.57-3.587 2.7-4.12 1.429-5.85-.45-.61-.926-1.11-1.059-1.11-.133 0-.241-.12-.241-.265 0-.153.86-.265 2.05-.266 2.448-.002 3.526-.27 5.103-1.27 1.301-.827 1.808-1.668 2.634-4.372.304-.994.913-2.572 1.355-3.507.803-1.7 2.698-4.343 3.113-4.343.121 0 .74.744 1.377 1.654 1.596 2.283 3.054 3.82 3.8 4.007.346.087 2.693-.258 5.216-.767 3.618-.73 5.213-.925 7.557-.925h2.971L53.26 80c-.875 2.302-1.719 10.988-2.101 21.64-.367 10.208-.75 13.003-2.298 16.802-.957 2.346-1.92 3.813-5.136 7.819-3.562 4.438-4.355 5.551-6.115 8.585-1.623 2.8-2.848 5.695-3.052 7.215-.127.947-.162.98-.61.574-.262-.237-.93-.593-1.486-.79-.555-.199-.801-.366-.546-.373.353-.009.463-.238.463-.97 0-.528.191-2.083.425-3.456.234-1.372.383-2.53.33-2.572-.051-.042-1.33-.717-2.839-1.5-2.355-1.222-3.04-1.74-4.828-3.651-1.146-1.225-2.09-2.359-2.095-2.52-.018-.5-2.235-3.184-2.914-3.528-1.918-.97-4.362.07-7.18 3.057-3.35 3.55-5.255 6.9-8.304 14.6-.504 1.273-1.336 4.543-1.683 6.614-.635 3.792-.625 3.527-.123 3.334.253-.097-.072.393-.722 1.09-.65.695-1.41 1.652-1.69 2.125-.278.473-.584.86-.679.86-.095 0-.247-.447-.337-.993zm39.716-30.54c4.498-3.187 3.143-10.986-2.157-12.418-1.863-.504-4.406.37-5.79 1.99-2.353 2.757-2.101 7.17.558 9.768 2.061 2.012 5.097 2.284 7.389.66z" style="fill:#d57930;stroke-width:.264583"/><path id="path354" d="m-16.796 258.99 1.23-.08.715-2.293c.393-1.262 1.29-3.44 1.994-4.843 1.227-2.444 4.286-6.86 4.752-6.86.123 0 .295.804.383 1.786.225 2.536 1.156 9.332 1.494 10.908l.285 1.329h2.58c1.419 0 2.64-.06 2.712-.133.073-.073-.2-1.584-.606-3.358-1.256-5.478-1.603-9.126-1.603-16.882-.002-9.214.714-17.18 2.306-25.688.683-3.652 2.142-9.64 2.506-10.285.173-.307.454.08 1.143 1.577 2.567 5.579 8.065 11.736 13.136 14.713 2.541 1.491 3.498 1.684 4.54.913.432-.319.88-.542.998-.496.117.046 1.212 1.154 2.434 2.462 1.757 1.881 1.917 2.11.766 1.093-.8-.708-1.857-1.755-2.348-2.328l-.893-1.04-.58.543c-.962.904-2.363.721-4.707-.615-1.119-.637-2.763-1.768-3.655-2.513-.892-.745-1.703-1.355-1.802-1.355-.099 0-.463 1.697-.808 3.77-1.236 7.42-1.013 20.722.506 30.229.568 3.556 1.558 8.595 1.75 8.911.061.1-.04.275-.225.39-.184.115-7.062.212-15.284.216-8.222.004-14.395-.028-13.719-.071zm23.706-.649c-1.2-5.512-2.167-10.615-2.844-15.015-.696-4.517-.926-5.502-1.38-5.893-.864-.744-2.355-.028-2.903 1.395-.811 2.105.343 12.273 2.157 19.013l.295 1.096h2.402c2.353 0 2.4-.012 2.273-.596zm94.392.599c-1.543-.079-2.628-.246-2.603-.4.023-.146.405-2.125.848-4.399.443-2.274.996-5.905 1.229-8.07.232-2.164.52-4.828.638-5.92.311-2.86.331-13.497.03-16.14-.58-5.104-1.267-8.458-1.73-8.453-.145 0-.979.58-1.852 1.285-2.185 1.766-4.792 3.411-5.879 3.711-1.028.284-1.549.16-2.356-.565-.559-.502-.567-.499-1.455.536-.491.573-1.547 1.621-2.347 2.33-1.108.983-.89.678.92-1.283L89.116 219l.683.654c1.16 1.11 2.296.816 5.726-1.486 4.409-2.958 9.945-9.322 12.122-13.937.43-.91.903-1.615 1.05-1.566.649.216 2.67 9.171 3.698 16.376 1.063 7.46 1.334 11.515 1.33 19.92-.004 8.475-.203 10.562-1.585 16.677-.359 1.59-.653 2.988-.653 3.105 0 .117 1.216.178 2.701.137l2.702-.076.452-2.249c.4-1.988 1.172-8.02 1.355-10.583.036-.51.18-.926.32-.926s.943.893 1.783 1.984c1.76 2.284 3.867 6.365 4.94 9.564l.741 2.21 1.168.133c1.545.175-22.94.178-26.348.003zm7.548-1.092c1.018-3.778 2.01-9.461 2.372-13.582.303-3.445.035-5.532-.817-6.355-1.62-1.567-2.673-.93-3.11 1.88-1.082 6.947-1.517 9.484-2.308 13.457-.493 2.474-.972 4.766-1.065 5.093-.166.586-.131.596 2.233.596h2.402zM96.21 171.36c3.565-5.273 5.423-9.042 6.19-12.56.224-1.024.435-3.317.47-5.098.053-2.703.143-3.326.545-3.77 1.286-1.422 4.244.291 6.501 3.765 1.22 1.878 1.319 1.717 1.497-2.446.097-2.237-.02-4.198-.442-7.408-.97-7.386-.959-6.937-.205-7.813l.664-.771 1.838.315c1.01.173 2.051.397 2.312.497.686.263-1.555-3.947-3.609-6.78-5.418-7.474-6.273-8.916-9.466-15.962-3.212-7.088-5.853-11.677-10.13-17.605-2.135-2.958-2.23-3.56-.88-5.565l.907-1.35h-1.957c-3.149 0-5.688-1.134-6.635-2.965-.234-.452-.653-1.645-.932-2.651-.278-1.006-.91-2.63-1.403-3.609-.88-1.75-2.888-4.535-3.265-4.53-.105 0-.447.447-.758.992-1.227 2.144-2.96 4.215-3.903 4.662-.944.448-1.063.44-4.996-.368-4.678-.96-10.37-1.345-16.86-1.14-3.214.101-5.11.327-8.755 1.043-3.39.666-4.829.847-5.302.667-.779-.296-2.075-1.697-3.647-3.94-.638-.91-1.258-1.654-1.379-1.654-.415 0-2.31 2.644-3.113 4.343a31.423 31.423 0 0 0-1.355 3.507c-.826 2.704-1.333 3.545-2.634 4.371-1.577 1-2.655 1.27-5.103 1.271-1.19.001-2.05.113-2.05.266 0 .146.108.265.241.265s.61.5 1.059 1.11c1.272 1.73 1.141 2.263-1.43 5.85-4.245 5.925-6.633 10.145-10.039 17.746-2.47 5.512-3.612 7.485-7.512 12.977-2.564 3.612-5.727 8.847-5.489 9.086.054.054.727-.089 1.496-.317 1.888-.56 2.781-.522 3.453.15.511.511.549.753.4 2.58-.091 1.108-.342 3.265-.56 4.793-.573 4.046-.507 11.641.102 11.641.095 0 .4-.384.678-.855 1.293-2.189 4.216-4.7 5.47-4.7 1.385 0 1.812.77 1.812 3.272 0 1.218.181 3.272.403 4.564.819 4.78 2.098 7.764 5.552 12.96 1.248 1.877 1.96 3.055 1.582 2.619-1.42-1.642-4.121-5.933-5.254-8.346-1.598-3.402-2.328-6.487-2.522-10.66-.137-2.947-.226-3.444-.672-3.77-.282-.206-.699-.375-.926-.374-1.159.003-3.798 2.459-5.193 4.834-.447.76-.923 1.35-1.059 1.311-.534-.154-.724-1.706-.74-6.014-.012-3.468.125-5.393.6-8.408.882-5.618.523-6.247-2.988-5.232-1.003.29-1.927.464-2.053.386-.375-.232 2.338-5.222 4.344-7.988 4.705-6.493 6.768-9.954 8.67-14.549 2.131-5.152 5.487-11.211 9.086-16.407 3.496-5.047 3.454-4.966 3.078-5.874-.183-.44-.793-1.263-1.358-1.827-.564-.564-1.025-1.082-1.025-1.15 0-.07 1.253-.19 2.784-.268 2.296-.117 3.037-.266 4.227-.848 1.81-.886 2.222-1.488 3.26-4.774 1.538-4.87 4.76-9.434 5.428-7.691.274.713 3.068 4.33 3.774 4.886.921.724 1.2.71 5.978-.304l4.05-.86 8.334.006 8.335.005 3.988.854c2.193.47 4.277.854 4.63.854 1.167-.002 2.276-.98 3.95-3.481.908-1.36 1.781-2.472 1.939-2.472.496 0 2.757 3.037 3.72 4.997.509 1.036 1.126 2.692 1.372 3.682.61 2.452 1.263 3.34 3.148 4.282 1.38.689 1.902.797 4.101.849 1.386.033 2.563.064 2.614.07.051.006-.29.449-.76.984-1.072 1.22-1.66 2.597-1.428 3.346.098.317.917 1.588 1.82 2.825 4.482 6.134 6.875 10.429 11.397 20.45 1.614 3.576 3.871 7.252 7.265 11.829 2.427 3.275 5.207 8.129 4.856 8.48-.145.145-.613.138-1.175-.017-2.332-.644-3.386-.728-3.972-.318-.527.37-.56.558-.417 2.412.086 1.106.35 3.44.589 5.186.624 4.572.39 12.304-.371 12.303-.094 0-.52-.626-.947-1.39-1.125-2.011-3.46-4.371-4.689-4.74-.878-.262-1.087-.239-1.545.176-.46.416-.53.816-.532 3.018-.003 4.438-.732 7.575-2.696 11.606-1.093 2.241-4.126 6.977-5.378 8.395-.385.437.064-.337 1-1.72zm-43.856-5.134a12.107 12.107 0 0 1-4.69-2.753c-1.212-1.134-2.789-3.376-2.545-3.62.058-.059.936-.235 1.95-.393 2.226-.345 4.787-1.135 6.51-2.008.699-.355 1.437-.644 1.64-.644.203 0 1.149.353 2.102.786 1.798.815 4.96 1.696 7.137 1.988.692.093 1.257.283 1.257.422 0 .911-2.958 4.144-4.762 5.205-2.215 1.301-6.212 1.774-8.6 1.017zm7.606-1.185c1.267-.604 2.188-1.315 3.354-2.587.884-.965 1.607-1.84 1.607-1.944 0-.105-1.016-.392-2.258-.639-2.193-.435-4.556-1.213-6.496-2.139-.911-.434-.988-.43-2.037.105-1.806.921-3.843 1.607-5.999 2.02-1.123.214-2.095.39-2.16.39-.265 0 .555 1.207 1.568 2.306 2.22 2.407 5.05 3.558 8.406 3.417 1.877-.078 2.569-.238 4.015-.929zm-25.86-40.92c-3.379-1.288-5.301-6.338-3.622-9.515 2.622-4.961 8.41-5.02 10.864-.11 1.64 3.282.858 6.982-1.887 8.927-1.516 1.074-3.641 1.351-5.355.698zm4.885-.882c.715-.428 1.5-1.222 1.985-2.004.695-1.126.8-1.543.8-3.187 0-6.05-6.023-8.963-9.88-4.778-2.114 2.293-2.208 5.795-.226 8.395 1.95 2.555 4.699 3.146 7.321 1.574zm33.125.6c-2.281-1.136-3.573-3.268-3.59-5.925-.014-2.228.45-3.515 1.794-4.979 1.395-1.52 2.783-2.152 4.738-2.16 3.483-.012 5.99 2.735 6.003 6.579.008 2.285-.416 3.538-1.684 4.979-1.988 2.259-4.646 2.81-7.261 1.507zm4.343.036c2.25-.668 3.996-2.94 4.265-5.548.402-3.89-2.342-7.293-5.875-7.288-2.17.003-5.052 2.353-5.693 4.643-.403 1.439-.217 3.946.377 5.095.666 1.288 2.118 2.595 3.378 3.04 1.475.522 1.96.53 3.548.058zM2.555 110.439c.075-.327.744-1.93 1.486-3.56.793-1.743 1.35-3.342 1.35-3.882 0-1.258-1.006-2.375-2.933-3.26-.861-.395-1.566-.809-1.566-.919 0-.333.824-.671 3.45-1.418 1.376-.391 2.604-.805 2.727-.92.123-.113-.445-1.162-1.263-2.33C.809 87.02-.248 78.467 2.107 64.23 3.354 56.696 4.62 52.784 5.87 52.607c1.123-.159 4.007 2.035 8.272 6.292 3.487 3.481 11.305 12.423 12.414 14.199.293.47.22.687-.6 1.761-.858 1.124-1.93 3.133-2.568 4.81-.335.881-.693.852-1.183-.096-1.225-2.369-7.61-9.657-9.194-10.494-2.297-1.214-4.242.216-5.242 3.856-.849 3.09-.878 8.11-.066 11.377.763 3.07 2.221 7.02 3.502 9.48.586 1.127 1.065 2.234 1.065 2.462 0 .227-1.28 2.248-2.846 4.49-3.087 4.421-4.583 6.738-5.75 8.902-.77 1.428-1.36 1.847-1.118.793zm104.806-.793c-.691-1.382-4.199-6.715-7.29-11.087l-1.619-2.289 1.353-2.738c2.901-5.871 4.082-10.256 4.086-15.173.004-4.65-1.001-8.244-2.598-9.29-.938-.616-2.769-.359-4.119.576-1.392.965-5.083 5.144-7.288 8.25-.955 1.347-1.814 2.448-1.909 2.448-.094 0-.442-.696-.772-1.547s-1.133-2.342-1.784-3.314c-.652-.971-1.185-1.914-1.185-2.096 0-.498 8.196-10.224 11.507-13.656 4.398-4.558 8.074-7.321 9.468-7.118.823.12 1.414 1.339 2.307 4.756 1.927 7.37 2.96 17.024 2.432 22.755-.536 5.82-1.896 9.88-4.614 13.762l-1.389 1.985c-.365.523.356 1.017 2.072 1.42 1.831.431 4.146 1.298 4.146 1.553 0 .113-.775.535-1.722.938-2.222.944-3.146 1.99-2.963 3.355.073.545.8 2.427 1.615 4.182.816 1.756 1.483 3.31 1.483 3.454 0 .675-.586.132-1.217-1.126z" style="fill:#a9551a;stroke-width:.264583"/><path id="path352" d="M-55.44 229.321c-1.539-5.064-1.7-6.465-1.813-15.826l-.106-8.798h26.612c14.637 0 26.612.077 26.612.171 0 .095-.425 2.148-.945 4.564-1.38 6.41-2.576 14.985-2.828 20.268l-.063 1.323-23.456.068-23.456.067zm174.232 1.416c-.088-.23-.16-1.01-.16-1.731 0-3.596-1.375-13.305-2.804-19.802-.495-2.25-.9-4.185-.9-4.3 0-.113 11.917-.207 26.482-.207h26.482l-.12 8.93c-.126 9.475-.29 10.924-1.79 15.778l-.54 1.75h-23.245c-20.951 0-23.26-.04-23.405-.418z" style="fill:#b72a16;stroke-width:.264583"/><path id="path350" d="M-57.685 203.256c-.137-.763-.16-28.126-.053-65.601.175-61.418.206-64.423.685-67.224 1.023-5.983 3.97-12.867 7.598-17.743 7.053-9.479 18.506-16.042 30.183-17.296 3.717-.4 145.796-.414 149.49-.016 9.696 1.046 18.294 5.235 25.471 12.409 6.454 6.45 10.16 13.47 11.95 22.636l.568 2.91.078 59.267c.044 32.597-.02 62.124-.14 65.617l-.218 6.35-.042-4.857c-.038-4.517-.073-4.843-.504-4.657-1.502.65-6.129 1.462-9.194 1.613-6.223.305-9.207-.527-16.54-4.615-6.788-3.784-9.152-4.55-14.046-4.55-2.913 0-5.682.522-7.857 1.48-1.61.71-1.482.864-1.904-2.274-.334-2.484-1.096-5.707-1.876-7.928-.784-2.234-.77-2.261 1.543-3.016 6.122-1.996 10.796-2.156 15.992-.547 1.21.375 4.46 1.795 7.225 3.156 5.795 2.854 8.524 3.868 12.02 4.468 4.198.72 7.88.466 12.918-.893l2.182-.59V166.669l-1.698.471c-5.279 1.464-12.32 1.867-16.426.94-2.759-.622-6.504-2.022-9.722-3.634-5.482-2.745-8.413-3.524-13.297-3.531-4.596-.007-7.195.661-12.036 3.095-1.963.987-3.636 1.794-3.718 1.794-.178 0-1.151-2.64-1.012-2.743.054-.04.59-.213 1.192-.385 1.616-.464 3.164-2.121 4.333-4.64.55-1.185 1.084-2.57 1.186-3.08.314-1.567.752-1.99 2.557-2.473 3.27-.874 5.864-1.23 8.948-1.23 5.532 0 8.961.953 16.184 4.502 5.028 2.471 7.5 3.317 10.923 3.738 3.004.369 5.976.05 9.84-1.054l2.614-.747.07-9.437.069-9.438h-44.964l-.567-1.918c-1.273-4.31-2.741-6.947-7.217-12.966-2.5-3.36-4.673-6.634-4.673-7.036 0-.145.387-.347.86-.449 1.18-.255 2.606-1.006 3.24-1.708 1.036-1.144.428-3.886-1.889-8.526-.489-.979-.888-1.833-.888-1.898 0-.065.837-.504 1.86-.975 1.096-.506 2.236-1.275 2.778-1.874 1.91-2.115.921-4.907-2.39-6.742-.873-.485-1.696-.918-1.828-.964-.133-.047.2-1.209.74-2.583.54-1.375 1.286-3.69 1.656-5.145 1.436-5.654 1.023-16.713-.98-26.187-1.386-6.563-2.614-9.644-4.553-11.431-1.614-1.488-2.203-1.756-3.915-1.779-3.155-.043-7.265 2.863-14.408 10.186-2.186 2.242-5.04 5.325-6.34 6.853-2.74 3.216-2.74 3.217-3.347 2.892-.868-.465-2.237-.267-3.327.482-1.312.9-2.173 1.906-4.267 4.988-2.275 3.349-2.238 3.322-3.994 2.865-3.775-.982-7.314-1.228-15.63-1.087-5.803.098-8.626.252-10.053.548a84.024 84.024 0 0 1-3.048.578l-1.063.166-1.745-2.475c-2.81-3.986-3.872-5.21-5.033-5.803-1.056-.538-2.142-.584-3.17-.135-.329.144-1.146-.626-3.399-3.2-4.065-4.647-10.681-11.339-13.214-13.366-2.501-2-4.98-3.29-6.777-3.524-1.129-.147-1.517-.064-2.767.592-3.243 1.702-4.936 5.712-6.737 15.958-2.23 12.689-1.876 20.443 1.291 28.21.517 1.268.912 2.329.877 2.358-.034.03-.787.416-1.673.86-2.748 1.377-4.175 3.576-3.55 5.47.378 1.143 2.07 2.623 3.68 3.217 1.974.729 1.96.636.558 3.612-2.06 4.375-2.547 6.603-1.706 7.803.507.724 2.017 1.509 3.378 1.756.764.139.976.284.86.59-.22.573-3.697 5.703-6.516 9.616-2.728 3.786-4.181 6.573-5.105 9.79l-.645 2.249-22.718.052-22.717.053-.07 9.171c-.065 8.675-.044 9.16.397 8.97 5.235-2.26 9.768-3.277 14.754-3.313 5.924-.042 9.838 1.17 15.875 4.917 3.329 2.065 3.246 2.024 6.025 3.002 4.455 1.568 9.205 1.653 14.963.267l2.391-.575.844.71c.464.39 1.187.887 1.606 1.104.52.27.762.596.762 1.033 0 1.084-1.358 4.387-1.956 4.756-.859.531-4.751 1.407-8.386 1.888-3.916.518-7.481.378-11.278-.441-2.829-.61-3.77-.968-9.84-3.73-5.239-2.383-8.097-3.126-12.032-3.126-1.618 0-3.84.172-4.937.382-2.444.468-5.998 1.734-7.861 2.802l-1.39.796v6.741c0 3.708.096 6.742.212 6.742.117 0 .325-.11.464-.244.426-.413 4.892-2.083 7.262-2.716 1.928-.515 2.893-.6 6.747-.593 4.495.007 4.5.008 7.409.998 1.6.546 5.53 2.3 8.73 3.898 6.285 3.139 8.097 3.748 12.7 4.27 1.835.208 3.24.22 4.58.038 1.063-.144 1.978-.187 2.034-.097.056.09.001 1.24-.122 2.555-.252 2.687.02 5.849.684 7.962.243.772.387 1.458.32 1.525-.325.325-5.946.71-8.292.568-5.3-.32-7.77-1.002-13.978-3.859-5.74-2.642-7.896-3.226-12.513-3.39-5.308-.188-9.604.693-14.047 2.88l-2.177 1.07-.072 4.408c-.058 3.545-.119 4.15-.309 3.098zM-9.359 90.728c1.371-1.534 1.65-6.211.51-8.566-.715-1.475-1.945-2.754-3.33-3.46-.997-.51-2.556-.639-4.909-.407-.565.055-.674-.073-.84-.995-1.129-6.226-6.887-10.966-13.337-10.977-3.765-.006-6.956 1.302-9.674 3.966-2.92 2.861-4.246 6.158-4.304 10.695l-.035 2.666-1.393.17c-3.147.384-5.06 3.509-4.005 6.538l.29.833h20.307c19.005 0 20.332-.03 20.72-.463z" style="fill:#004173;stroke-width:.264583"/><path id="path348" d="M-20.86 258.527c-.08-.08-1.5-.482-3.154-.893-13.25-3.293-24.305-12.306-29.751-24.257l-.893-1.96 23.335.068 23.335.067-.069 3.44c-.068 3.4-.077 3.446-.785 3.962-.395.288-1.802 1.598-3.128 2.912-2.673 2.648-4.842 5.764-6.452 9.265-1.237 2.69-2.487 6.62-2.28 7.162.152.394.09.484-.159.234zm152.456-.086c.345-.244.275-.639-.529-3.002-2.304-6.77-6.586-13.06-10.914-16.036l-1.257-.865v-7.118h46.296l-.624 1.39-.98 2.182c-.619 1.379-2.912 4.952-4.5 7.011-5.942 7.708-13.918 12.952-23.523 15.467-1.819.477-3.545.953-3.836 1.06-.42.152-.448.134-.133-.09zm-188.912-58.345v-4.339l2.183-1.074c4.45-2.19 8.743-3.07 14.053-2.883 4.617.164 6.773.748 12.513 3.39 6.207 2.857 8.677 3.54 13.978 3.859 2.346.141 7.967-.243 8.291-.568.068-.067-.076-.753-.319-1.525-.664-2.113-.936-5.275-.684-7.962.123-1.315.178-2.464.122-2.555-.056-.09-.971-.047-2.034.097-1.34.182-2.745.17-4.58-.038-4.603-.522-6.415-1.131-12.7-4.27-3.2-1.598-7.13-3.353-8.73-3.898-2.909-.99-2.914-.991-7.409-.998-3.854-.006-4.82.078-6.747.593-2.37.633-6.836 2.303-7.262 2.716-.139.134-.347.244-.464.244-.116 0-.211-3.034-.211-6.742v-6.741l1.389-.796c5.15-2.951 12.573-3.988 18.247-2.548 1.392.353 4.32 1.46 6.583 2.49 6.07 2.762 7.011 3.119 9.84 3.73 3.797.82 7.362.959 11.278.441 3.635-.48 7.527-1.357 8.386-1.888.598-.37 1.956-3.673 1.956-4.756 0-.437-.241-.764-.762-1.033-.42-.217-1.142-.714-1.606-1.104l-.844-.71-2.391.575c-5.758 1.386-10.508 1.301-14.963-.267-2.779-.978-2.696-.937-6.025-3.002-6.037-3.747-9.951-4.959-15.875-4.917-4.986.036-9.52 1.054-14.754 3.313-.44.19-.462-.295-.396-8.97l.07-9.17 22.716-.054 22.718-.052.645-2.25c.924-3.216 2.377-6.004 5.105-9.789 2.82-3.913 6.295-9.043 6.515-9.616.117-.306-.095-.451-.858-.59-1.362-.247-2.872-1.032-3.379-1.756-.84-1.2-.354-3.428 1.706-7.803 1.401-2.976 1.416-2.883-.559-3.612-1.61-.594-3.301-2.074-3.679-3.218-.625-1.893.802-4.092 3.55-5.469.886-.444 1.639-.831 1.673-.86.035-.03-.36-1.09-.877-2.358-3.167-7.767-3.522-15.521-1.291-28.21 1.8-10.246 3.494-14.256 6.737-15.958 1.25-.656 1.638-.74 2.767-.592 1.797.234 4.276 1.523 6.777 3.524 2.533 2.027 9.149 8.719 13.214 13.365 2.253 2.575 3.07 3.345 3.399 3.201 1.028-.45 2.114-.403 3.17.135 1.16.592 2.223 1.817 5.033 5.803l1.745 2.475 1.063-.166a84.026 84.026 0 0 0 3.048-.578c1.427-.296 4.25-.45 10.054-.548 8.315-.141 11.854.105 15.629 1.087 1.756.457 1.719.484 3.994-2.865 2.094-3.082 2.955-4.089 4.267-4.988 1.09-.749 2.459-.947 3.327-.482.607.325.608.324 3.346-2.892 1.302-1.528 4.155-4.612 6.34-6.853 7.144-7.323 11.254-10.229 14.41-10.186 1.711.023 2.3.29 3.914 1.779 1.94 1.787 3.167 4.868 4.554 11.43 2.002 9.475 2.415 20.534.979 26.187-.37 1.456-1.115 3.77-1.655 5.146-.54 1.374-.874 2.536-.741 2.583 1.233.428 3.577 2.053 4.276 2.965.702.915.86 1.361.86 2.423 0 1.114-.133 1.448-.918 2.318-.542.6-1.682 1.368-2.778 1.874-1.023.471-1.86.91-1.86.975 0 .065.4.919.888 1.898 2.317 4.64 2.925 7.381 1.89 8.526-.635.702-2.06 1.453-3.241 1.708-.473.102-.86.304-.86.45 0 .401 2.174 3.674 4.673 7.035 4.476 6.02 5.944 8.656 7.217 12.966l.567 1.918h44.964l-.07 9.438-.07 9.437-2.638.754c-3.838 1.097-6.93 1.421-9.908 1.04-3.392-.436-5.84-1.279-10.83-3.73-7.223-3.55-10.652-4.504-16.184-4.504-3.084 0-5.677.357-8.948 1.23-1.805.483-2.243.907-2.557 2.474-.102.51-.636 1.895-1.186 3.08-1.17 2.519-2.717 4.176-4.333 4.64-.602.172-1.138.346-1.192.385-.14.103.834 2.743 1.012 2.743.082 0 1.755-.807 3.718-1.794 4.841-2.434 7.44-3.102 12.036-3.095 4.884.008 7.815.786 13.297 3.531 3.218 1.612 6.963 3.012 9.722 3.634 4.105.927 11.147.524 16.426-.94l1.698-.47V181.355l-2.182.589c-5.037 1.359-8.72 1.613-12.919.893-3.495-.6-6.223-1.614-12.019-4.468-2.764-1.36-6.016-2.781-7.225-3.156-5.196-1.61-9.87-1.45-15.992.547-2.313.755-2.327.782-1.543 3.016.78 2.221 1.542 5.444 1.876 7.928.422 3.138.293 2.985 1.904 2.275 2.175-.96 4.944-1.48 7.857-1.48 4.894 0 7.258.765 14.046 4.549 7.333 4.088 10.317 4.92 16.54 4.614 3.065-.15 7.692-.962 9.194-1.612.431-.186.463.128.463 4.592v4.792l-26.524-.067-26.525-.068-.586-1.72c-.827-2.427-.8-2.645.334-2.645 1.777 0 2.756-1.837 3.34-6.267.244-1.848.203-2.748-.281-6.15-.333-2.345-.96-5.267-1.52-7.096-.525-1.71-1.042-3.476-1.149-3.925-.287-1.202-2.644-6.877-4.411-10.62-.359-.759-.72-1.794-.802-2.301-.137-.849-.09-.934.611-1.08 2.136-.448 3.497-1.757 4.853-4.67 1.398-3.004 1.716-4.537 1.722-8.295.003-1.891-.084-4.124-.195-4.96l-.2-1.522h1.815c2.27 0 3.423-.663 3.993-2.298.348-.998.33-1.276-.2-3.258-1.147-4.286-2.712-7.14-7.353-13.406-2.676-3.613-4.865-6.954-4.866-7.425 0-.18.328-.396.728-.481 1.531-.328 2.92-.951 3.504-1.572.924-.984.628-2.802-1.06-6.51-1.969-4.328-1.988-4.004.307-5.073 2.082-.969 3.316-2.011 3.567-3.015.468-1.862-.891-3.864-3.493-5.145-.946-.466-1.772-.93-1.835-1.033-.063-.102.306-1.218.821-2.48 1.215-2.979 2.167-6.774 2.532-10.084.57-5.174-.288-14.784-2.006-22.49-1.12-5.02-2.222-7.903-3.635-9.508-2.775-3.153-5.762-3.006-10.542.519-2.392 1.764-9.155 8.469-13.42 13.304-3.486 3.953-3.59 4.044-4.402 3.85-2.143-.513-3.62.245-5.461 2.802-4.386 6.09-4.22 5.9-4.979 5.738-5.931-1.265-6.897-1.35-15.394-1.354-7.614-.002-8.586.049-11.245.593-1.6.327-3.164.665-3.474.75-.703.19-1.219-.335-3.312-3.378-2.271-3.302-3.503-4.61-4.805-5.108-.871-.333-1.298-.368-1.864-.152-.404.153-.897.279-1.094.279-.198 0-1.848-1.697-3.666-3.77a222.234 222.234 0 0 0-6.965-7.502C9.589 46.547 4.91 44.835 1.382 49.502c-1.097 1.453-1.745 3.065-2.716 6.764-1.777 6.768-2.801 14.293-2.8 20.581 0 5.905.673 9.704 2.536 14.324.496 1.232.903 2.377.903 2.545 0 .167-.892.745-1.98 1.284-1.6.79-2.11 1.197-2.647 2.114-1.542 2.63-.342 4.64 3.657 6.126 1.531.569 1.54.432-.293 4.487-1.667 3.69-2.092 5.378-1.604 6.387.438.907 1.664 1.641 3.17 1.898.75.128 1.176.347 1.231.632.105.544-2.066 4.078-4.447 7.24-4.538 6.023-6.332 9.335-7.429 13.713-.47 1.88-.494 2.275-.19 3.194.514 1.56 1.706 2.258 3.855 2.258h1.712l-.23 2.05c-.378 3.376-.25 7.923.276 9.856 1.037 3.807 3.168 6.836 5.247 7.46.577.172 1.112.477 1.19.677.224.587-.692 3.563-1.702 5.525-1.278 2.481-3.59 8.214-4.414 10.945-1.31 4.337-1.549 5.973-1.585 10.848-.032 4.23.02 4.79.594 6.482.741 2.185 1.43 3.043 2.444 3.043.403 0 .785.089.85.198.065.11-.136 1.091-.447 2.183l-.566 1.984-26.656.068-26.657.067z" style="fill:#002d53;stroke-width:.264583"/><path id="path346" d="M-19.164 258.741c-.874-.06-1.455-.235-1.543-.462-.203-.53 1.062-4.488 2.285-7.148 1.61-3.501 3.78-6.617 6.452-9.265 1.326-1.314 2.729-2.624 3.117-2.912l.707-.523.159-5.423c.238-8.124 1.127-15.298 2.938-23.716.66-3.073.864-4.48.657-4.548-.197-.066-.163-.205.098-.404.43-.328 1.537-3.998 1.283-4.252-.085-.084-.47-.153-.857-.153-.983 0-1.683-.881-2.416-3.043-.575-1.692-.626-2.251-.594-6.482.036-4.875.275-6.511 1.585-10.848.824-2.731 3.136-8.464 4.414-10.945 1.01-1.962 1.926-4.938 1.701-5.525-.077-.2-.612-.505-1.189-.678-2.08-.623-4.21-3.652-5.247-7.459-.526-1.933-.654-6.48-.276-9.855l.23-2.05h-1.712c-2.15 0-3.34-.699-3.856-2.26-.303-.918-.28-1.314.191-3.193 1.097-4.378 2.891-7.69 7.429-13.714 2.38-3.161 4.552-6.695 4.447-7.24-.055-.284-.481-.503-1.231-.631-1.506-.257-2.732-.991-3.17-1.898-.488-1.01-.063-2.698 1.604-6.387 1.833-4.055 1.824-3.918.293-4.487-3.999-1.485-5.199-3.496-3.657-6.126.537-.917 1.046-1.324 2.646-2.114 1.09-.539 1.98-1.117 1.98-1.284 0-.168-.406-1.313-.902-2.545-1.863-4.62-2.536-8.42-2.537-14.324 0-6.288 1.024-13.813 2.801-20.581.971-3.7 1.619-5.311 2.716-6.763 3.528-4.668 8.207-2.956 17.325 6.34a222.247 222.247 0 0 1 6.965 7.5c1.818 2.074 3.468 3.77 3.666 3.77.197 0 .69-.125 1.094-.278.566-.216.993-.18 1.864.152 1.302.497 2.534 1.806 4.805 5.108 2.093 3.043 2.609 3.569 3.312 3.377.31-.084 1.873-.422 3.474-.75 2.659-.543 3.631-.594 11.245-.592 8.497.004 9.463.089 15.394 1.354.758.162.593.352 4.979-5.738 1.841-2.557 3.318-3.315 5.461-2.802.811.195.916.103 4.403-3.85 4.264-4.835 11.027-11.54 13.419-13.304 4.78-3.525 7.767-3.672 10.542-.52 1.413 1.606 2.515 4.49 3.635 9.51 1.718 7.705 2.575 17.315 2.006 22.489-.365 3.31-1.317 7.105-2.532 10.084-.515 1.262-.884 2.378-.82 2.48.062.102.888.567 1.834 1.033 2.602 1.28 3.96 3.283 3.493 5.145-.251 1.004-1.485 2.046-3.567 3.015-2.295 1.069-2.276.745-.307 5.072 1.688 3.71 1.984 5.527 1.06 6.51-.584.622-1.973 1.245-3.504 1.573-.4.085-.728.302-.727.481 0 .47 2.189 3.812 4.865 7.425 4.64 6.266 6.206 9.12 7.353 13.406.53 1.982.548 2.26.2 3.258-.57 1.635-1.722 2.298-3.993 2.298h-1.816l.201 1.522c.11.836.198 3.069.195 4.96-.006 3.758-.324 5.291-1.722 8.294-1.356 2.914-2.717 4.223-4.853 4.67-.7.147-.748.232-.61 1.08.082.508.442 1.543.8 2.303 1.768 3.742 4.125 9.417 4.412 10.619.107.449.624 2.215 1.149 3.925.56 1.829 1.187 4.751 1.52 7.096.484 3.402.525 4.302.28 6.15-.583 4.43-1.562 6.267-3.339 6.267-.626 0-.938.122-.938.369 0 .862 1.122 3.905 1.492 4.047.287.11.315.21.095.346-.227.14-.057 1.344.636 4.527 1.168 5.359 1.873 9.758 2.393 14.92.598 5.953.636 6.567.645 10.63l.009 3.75 1.268.871c4.339 2.984 8.618 9.268 10.924 16.044.748 2.196.858 2.764.57 2.943-.506.314-4.835.633-5.07.373-.109-.118-.464-1.049-.79-2.067-.921-2.876-3.287-7.47-4.974-9.658-.841-1.09-1.644-1.984-1.784-1.984-.14 0-.284.417-.32.926-.183 2.563-.956 8.595-1.356 10.583l-.452 2.25-2.701.075c-1.486.041-2.702-.02-2.702-.137s.294-1.514.654-3.105c1.382-6.115 1.58-8.202 1.584-16.677.004-8.405-.266-12.46-1.33-19.92-1.027-7.205-3.049-16.16-3.697-16.376-.148-.05-.62.656-1.05 1.567-2.178 4.614-7.714 10.978-12.123 13.937-3.415 2.291-4.662 2.617-5.717 1.495l-.605-.644-2.798 2.778c-3.037 3.015-5.905 5.294-8.76 6.962-2.468 1.441-4.95 2.491-5.44 2.303-.914-.35-.35-1.193 2.214-3.312 3.566-2.946 8.777-8.393 10.932-11.425.977-1.376 2.502-3.9 3.389-5.61 1.665-3.209 2.103-3.607 2.994-2.715.53.529.968 2.695.968 4.779 0 1.54.053 1.707.538 1.707.727 0 4.224-3.523 6.388-6.436 3.708-4.99 5.793-9.325 7.28-15.135.694-2.714.788-2.908 1.437-2.984.501-.058 1.189.293 2.467 1.26.974.738 1.899 1.264 2.053 1.168.185-.114.225-.922.115-2.35-.361-4.699-1.54-9.02-4.146-15.21-.766-1.82-1.78-4.38-2.251-5.69-.473-1.309-1.02-2.413-1.219-2.453-.21-.043-.636.509-1.02 1.321-1.443 3.043-5.223 7.528-8.186 9.712-3.604 2.657-5.62 3.282-5.79 1.796-.07-.606.264-1.108 1.88-2.825 3.418-3.634 7.31-9.44 9.05-13.503 1.329-3.103 1.747-5.086 1.911-9.055.127-3.087.223-3.697.643-4.076.42-.38.645-.401 1.508-.142 1.23.368 3.564 2.728 4.69 4.74.426.763.852 1.388.946 1.389.762 0 .995-7.73.371-12.303-.238-1.747-.503-4.08-.588-5.186-.144-1.854-.111-2.042.417-2.412.586-.41 1.64-.326 3.971.318.562.155 1.03.162 1.175.017.352-.351-2.428-5.206-4.856-8.48-3.393-4.577-5.651-8.253-7.265-11.83-4.522-10.02-6.915-14.315-11.396-20.45-.903-1.236-1.723-2.507-1.82-2.824-.232-.75.355-2.126 1.427-3.346.47-.535.812-.978.76-.984-.051-.006-1.227-.038-2.613-.07-2.2-.052-2.722-.16-4.101-.85-1.885-.94-2.539-1.829-3.148-4.28-.246-.99-.864-2.647-1.373-3.683-.963-1.96-3.223-4.997-3.72-4.997-.158 0-1.03 1.112-1.94 2.472-1.673 2.502-2.782 3.479-3.949 3.48-.353.001-2.437-.383-4.63-.853L63.73 78.9l-8.334-.006-8.335-.005-4.05.86c-4.778 1.014-5.056 1.028-5.977.304-.707-.556-3.5-4.173-3.775-4.886-.668-1.743-3.89 2.82-5.428 7.69-1.038 3.286-1.45 3.889-3.26 4.775-1.19.582-1.93.73-4.227.848-1.531.078-2.784.198-2.784.267 0 .07.462.587 1.026 1.151.564.564 1.175 1.386 1.357 1.827.376.908.418.827-3.077 5.874-3.6 5.196-6.956 11.255-9.088 16.407-1.9 4.595-3.963 8.056-8.669 14.548-2.005 2.767-4.719 7.757-4.344 7.989.127.078 1.05-.096 2.054-.386 3.51-1.015 3.87-.386 2.987 5.232-.91 5.788-.814 14.493.16 14.493.125 0 .592-.622 1.04-1.382 1.394-2.375 4.034-4.831 5.193-4.834.227 0 .643.168.926.374.446.326.534.823.671 3.77.098 2.099.382 4.305.743 5.777 1.193 4.858 5.729 12.432 10.243 17.101 2.067 2.138 2.455 3.116 1.45 3.654-.69.37-1.845-.055-4.122-1.516-3.533-2.265-7.65-6.854-9.488-10.574-.45-.91-.94-1.654-1.092-1.654-.151 0-.553.804-.893 1.786-.34.982-1.34 3.512-2.22 5.622-2.962 7.09-4.01 10.846-4.561 16.342-.22 2.189.125 2.303 2.245.742 1.832-1.348 2.787-1.534 3.158-.613.132.327.666 2.143 1.187 4.035 1.31 4.758 3.6 9.307 6.877 13.663 2.576 3.425 5.793 6.647 6.502 6.513.311-.058.41-.58.462-2.42.102-3.698.675-5.03 1.948-4.526.202.08 1.08 1.52 1.95 3.2 2.865 5.535 7.51 11.053 13.84 16.438 2.15 1.828 3.229 2.921 3.17 3.208-.154.743-1.556.449-4.179-.876-4.355-2.2-7.152-4.325-11.41-8.668-.967-.986-1.835-1.794-1.928-1.794-.094 0-.513.253-.932.563-1.016.751-1.992.55-4.516-.931-5.07-2.977-10.568-9.134-13.136-14.713-.689-1.497-.97-1.884-1.143-1.577-.363.644-1.823 6.633-2.506 10.285-1.592 8.508-2.307 16.474-2.306 25.688 0 7.756.347 11.404 1.603 16.882.407 1.774.68 3.285.607 3.358-.073.073-1.294.133-2.713.133h-2.58l-.285-1.33c-.338-1.575-1.269-8.371-1.494-10.907-.087-.983-.26-1.786-.383-1.786-.466 0-3.525 4.416-4.752 6.86-.703 1.402-1.602 3.587-1.998 4.856l-.72 2.307-1.092-.05c-.602-.026-1.725-.092-2.497-.146zM3.674 109.646c1.166-2.164 2.662-4.48 5.749-8.901 1.565-2.243 2.846-4.264 2.846-4.491 0-.228-.48-1.335-1.065-2.462-1.28-2.46-2.74-6.41-3.502-9.48-.812-3.268-.783-8.286.066-11.377 1-3.64 2.945-5.07 5.242-3.856 1.583.837 7.969 8.125 9.194 10.494.49.948.848.977 1.183.096.637-1.677 1.71-3.686 2.568-4.81.82-1.074.893-1.291.6-1.761-1.11-1.776-8.927-10.718-12.414-14.199-4.265-4.257-7.15-6.45-8.272-6.292-1.249.177-2.515 4.089-3.762 11.623C-.248 78.466.81 87.02 5.806 94.15c.818 1.168 1.386 2.217 1.263 2.33-.123.115-1.35.529-2.728.92-2.625.747-3.449 1.085-3.449 1.418 0 .11.705.524 1.566.919 1.927.885 2.932 2.002 2.932 3.26 0 .54-.556 2.139-1.35 3.882-.741 1.63-1.41 3.233-1.485 3.56-.242 1.054.348.635 1.119-.793zm104.904 1.126c0-.144-.667-1.698-1.483-3.454-.815-1.755-1.542-3.637-1.615-4.182-.183-1.364.741-2.41 2.963-3.355.947-.403 1.722-.825 1.722-.938 0-.255-2.315-1.122-4.146-1.552-1.716-.404-2.437-.898-2.072-1.42l1.39-1.986c2.717-3.883 4.077-7.942 4.613-13.762.527-5.731-.505-15.386-2.432-22.755-.893-3.417-1.484-4.636-2.307-4.756-1.394-.203-5.07 2.56-9.468 7.118-3.311 3.432-11.507 13.158-11.507 13.656 0 .182.533 1.125 1.185 2.096.651.972 1.454 2.463 1.784 3.314.33.85.678 1.547.772 1.547.095 0 .954-1.101 1.91-2.447 2.204-3.107 5.895-7.286 7.287-8.25 1.35-.936 3.18-1.193 4.119-.578 1.597 1.047 2.602 4.64 2.598 9.29-.004 4.918-1.185 9.303-4.086 15.174l-1.353 2.738 1.619 2.29c3.091 4.371 6.599 9.704 7.29 11.086.63 1.258 1.217 1.8 1.217 1.126zM1.94 257.842c-1.814-6.74-2.968-16.91-2.157-19.014.548-1.423 2.039-2.139 2.903-1.395.454.39.684 1.376 1.38 5.893.677 4.4 1.643 9.503 2.844 15.015.127.584.08.596-2.273.596H2.235Zm30.08.894c-.068-.11-.271-1.207-.45-2.437-.368-2.511-.162-9.727.29-10.179.582-.583 1.194.381 2.19 3.45 1.199 3.69 2.547 8.884 2.38 9.168-.151.26-4.249.259-4.41-.002zm42.365.051c-.172-.172 1.262-5.84 2.493-9.854 1.196-3.899 2.037-4.171 2.578-.835.36 2.218.355 4.653-.016 7.423-.47 3.515-.388 3.416-2.826 3.416-1.144 0-2.147-.068-2.23-.15zm29.537-.446c.093-.327.572-2.619 1.065-5.093.791-3.973 1.226-6.51 2.307-13.456.438-2.811 1.49-3.448 3.111-1.88.852.822 1.12 2.91.817 6.354-.362 4.12-1.354 9.804-2.372 13.582l-.293 1.089h-2.402c-2.364 0-2.399-.01-2.233-.596zm-50.51-87.166c-5.42-.719-10.5-4.665-13.155-10.218-.614-1.284-1.129-1.967-1.79-2.374-2.662-1.637-5.682-5.401-7.81-9.736-1.662-3.388-1.886-4.913-.906-6.159 1.323-1.683 4.737-.191 4.747 2.074.005 1.19 1.37 4.894 2.3 6.24 1.251 1.811 2.97 3.377 4.574 4.164 2.021.993 5.051 1.133 7.184.333 2.692-1.01 5.186-3.8 5.323-5.954.062-.984.06-.986-1.63-1.604-2.178-.797-3.56-1.8-5.115-3.71-1.602-1.97-2.145-3.577-2.01-5.955.207-3.674 2.39-5.352 7.583-5.832 3.153-.291 7.42-.023 9.36.589 3.53 1.113 5.054 5.237 3.326 9.004-1.259 2.745-4.04 5.211-6.792 6.025-1.373.406-1.491.504-1.569 1.297-.199 2.036 2.37 5.074 5.19 6.137 1.236.466 1.915.549 3.758.458 3.43-.17 5.827-1.587 7.918-4.683 1.077-1.594 2.4-4.661 2.4-5.563 0-1.681 1.835-3.717 3.349-3.717.91 0 1.865.786 2.101 1.729.266 1.059-.087 2.275-1.502 5.168-1.955 3.997-5.424 8.216-7.998 9.727-.484.284-1.169 1.245-1.918 2.69-2.738 5.284-7.134 8.764-12.212 9.669-2.028.361-3.14.409-4.706.201zm5.177-5c1.848-.543 2.981-1.218 4.573-2.727 1.257-1.19 2.553-2.94 2.553-3.444 0-.14-.565-.33-1.257-.422-2.177-.292-5.339-1.173-7.137-1.988-.953-.433-1.9-.786-2.102-.786-.203 0-.941.29-1.64.644-1.723.873-4.284 1.663-6.51 2.008-1.014.158-1.892.334-1.95.393-.244.244 1.333 2.486 2.545 3.62a12.107 12.107 0 0 0 4.69 2.753c1.49.473 4.538.448 6.235-.051zM35.113 124.01c-2.774-.66-4.85-3.437-4.85-6.493 0-1.721.5-3.025 1.626-4.247 3.858-4.185 9.881-1.273 9.881 4.778 0 1.644-.105 2.061-.8 3.187-1.295 2.094-3.775 3.269-5.857 2.775zm37.792-.193c-1.26-.445-2.712-1.752-3.378-3.04-.594-1.15-.78-3.656-.377-5.095.641-2.29 3.522-4.64 5.693-4.643 3.533-.005 6.277 3.398 5.875 7.288-.269 2.608-2.015 4.88-4.265 5.548-1.589.472-2.073.464-3.548-.058z" style="fill:#1a110f;stroke-width:.264583"/></g></g><style id="style134">@media (prefers-color-scheme:light){:root{filter:none}}@media (prefers-color-scheme:dark){:root{filter:none}}</style></svg>